<?xml version="1.0" encoding="utf-8" ?>
<svg xmlns="http://www.w3.org/2000/svg" xmlns:xlink="http://www.w3.org/1999/xlink" width="128" height="128">
	<defs>
		<linearGradient id="gradient_0" gradientUnits="userSpaceOnUse" x1="1024.4128" y1="1022.5839" x2="-0.91282928" y2="0.91609746">
			<stop offset="0" stop-color="#13212F"/>
			<stop offset="1" stop-color="#234455"/>
		</linearGradient>
	</defs>
	<path fill="url(#gradient_0)" transform="scale(0.125 0.125)" d="M0 0L1024 0L1024 1024L0 1024L0 0Z"/>
	<path fill="#FEFEFE" transform="scale(0.125 0.125)" d="M361.498 707.059C368.316 707.122 384.045 705.892 389.75 707.45C390.318 708.774 390.148 709.658 390.062 711.057C387.838 712.418 380.765 711.574 377.889 711.577C377.814 718.631 377.906 725.695 377.916 732.75C377.903 735.997 378.965 742.202 376.937 744.703C375.627 745.119 375.344 745.18 374.004 744.915C371.874 742.279 372.992 717.009 372.998 711.646C369.36 711.57 365.56 712.625 362.168 711.091C361.269 709.7 361.51 708.692 361.498 707.059Z"/>
	<path fill="#FEFEFE" transform="scale(0.125 0.125)" d="M269.549 706.657C274.373 706.457 277.949 708.275 281.884 710.765C280.835 712.045 279.882 713.186 278.564 714.194C276.612 713.027 274.299 711.632 272.032 711.27C269.842 710.921 266.799 711.571 265.121 713.076C263.941 714.135 263.038 716.121 263.172 717.704C263.618 722.958 276.574 725.328 280.436 728.696C281.973 730.037 283.122 731.763 283.205 733.852C283.314 736.601 281.377 740.7 279.471 742.616C276.472 745.631 271.439 745.512 267.498 745.54C263.073 744.74 260.123 743.245 256.441 740.725C257.096 740.115 259.522 737.576 260.496 737.7C263.611 738.097 266.925 742.416 272.913 741.432C274.529 741.167 275.794 740.293 276.66 738.922C277.604 737.426 278.232 735.329 277.606 733.596C275.925 728.936 266.678 727.777 262.603 725.5C260.511 724.33 259.09 722.625 258.52 720.275C257.825 717.413 258.319 714.19 259.925 711.711C262.122 708.32 265.79 707.336 269.549 706.657Z"/>
	<path fill="#FEFEFE" transform="scale(0.125 0.125)" d="M611.15 706.064L620.823 706.017C621.038 719.395 620.945 732.792 620.988 746.173L611.044 746.16L611.15 706.064Z"/>
	<path fill="#FEFEFE" transform="scale(0.125 0.125)" d="M327.474 707.179C328.951 707.148 330.171 707.151 331.614 707.559C333.661 710.751 332.12 724.357 332.134 728.714C332.144 732.144 332.568 736.206 335.265 738.655C337.452 740.641 340.709 741.1 343.553 740.875C359.399 739.62 348.156 713.887 353.811 707.12C355.141 706.597 355.15 706.607 356.518 707.028C357.586 708.293 357.385 708.761 357.445 710.375C357.48 719.153 359.534 735.377 352.914 741.873C350.014 744.72 345.982 745.53 342.046 745.515C338.139 745.501 334.181 744.627 331.375 741.724C324.985 735.113 327.33 716.178 327.474 707.179Z"/>
	<path fill="#FEFEFE" transform="scale(0.125 0.125)" d="M313.955 723.979C314.008 720.091 313.522 716.15 313.736 712.288C313.847 710.279 314.106 708.862 315.658 707.479C316.846 707.192 317.014 707.05 318.123 707.512C320.099 711.205 319 739.124 319.01 745.046C317.323 745.095 315.806 745.126 314.149 744.783C313.266 739.713 313.815 733.573 313.79 728.377L293.543 728.387C293.498 731.525 294.427 740.598 293.409 742.943C292.919 744.072 292.226 744.994 291.06 745.459C290.313 745.757 290.158 745.497 289.475 745.211C288.774 744.365 288.61 743.563 288.532 742.491C288.316 739.543 288.741 736.449 288.731 733.479L288.598 707.468Q290.956 707.454 293.313 707.48C294.385 711.092 293.515 719.861 293.483 723.984L313.955 723.979Z"/>
	<path fill="#FEFEFE" transform="scale(0.125 0.125)" d="M522.198 707.037C523.163 707.002 524.349 706.848 525.295 707C527.849 707.413 544.141 732.687 546.529 736.319C546.585 731.496 546.71 726.652 546.606 721.831C546.528 718.18 545.863 714.235 546.351 710.611C546.525 709.321 546.918 708.521 547.725 707.482C548.948 706.945 549.196 706.848 550.513 706.983C552.317 710.121 551.426 739.468 551.448 744.913C550.401 745.124 549.55 745.303 548.482 745.153C545.34 744.712 530.301 720.706 527.08 716.515C527.065 721.74 528.098 741.779 526.353 744.835C525.092 745.192 524.074 745.052 522.802 744.905C521.372 741.966 522.184 712.79 522.198 707.037Z"/>
	<path fill="#FEFEFE" transform="scale(0.125 0.125)" d="M372.217 411.87C374.423 414.146 376.247 417.142 378.199 419.674C380.68 422.892 383.366 425.923 386.073 428.951C379.872 434.492 372.331 439.136 365.744 444.327L365.323 444.372C362.402 443.181 354.512 431.433 352.424 428.319C358.385 422.458 365.592 416.971 372.217 411.87Z"/>
	<path fill="#FEFEFE" transform="scale(0.125 0.125)" d="M650.631 412.488C658.206 416.21 665.605 422.542 672.483 427.476C668.114 433.426 663.964 439.406 659.99 445.627L659.611 445.823C656.474 444.643 642.811 432.947 639.078 430.064C642.899 424.186 646.842 418.392 650.631 412.488Z"/>
	<path fill="#FEFEFE" transform="scale(0.125 0.125)" d="M569.85 706.013L604.985 705.879L604.972 713.553L592.418 713.561L592.52 733.75L592.544 746.298L582.915 746.295L582.925 713.884Q576.403 713.943 569.883 713.78L569.85 706.013Z"/>
	<path fill="#FEFEFE" transform="scale(0.125 0.125)" d="M482.071 736.742C485.746 727.275 487.65 717.191 491.012 707.625C492.108 706.805 492.694 706.993 494.011 706.936C497.18 709.512 502.075 732.296 503.498 737.695C504.619 733.658 510.275 709.44 512.105 707.641C512.763 706.994 514.639 706.943 515.502 707.074C516.43 707.216 516.124 707.126 516.719 707.931L515.254 712.876C511.862 722.632 509.78 734.867 505.749 744.005C504.511 745.043 503.429 744.751 501.843 744.799C499.71 743.295 494.288 719.941 492.965 715.748C490.736 721.769 489.051 728.051 487.319 734.229C486.369 737.622 485.729 741.525 484.075 744.621C482.535 744.96 481.642 744.908 480.088 744.63C478.981 743.178 469.352 711.486 468.129 707.14C469.736 707.036 471.204 707.018 472.806 707.191C475.603 709.218 480.703 731.749 482.071 736.742Z"/>
	<path fill="#FEFEFE" transform="scale(0.125 0.125)" d="M685.922 705.788L716.218 705.809L716.183 713.647L695.709 713.642L695.625 721.874L714.08 721.941L714.106 729.649L696.66 729.661L696.297 729.964C695.484 732.479 695.922 735.842 695.954 738.489L716.979 738.504L716.971 746.187L685.951 746.197L685.922 705.788Z"/>
	<path fill="#FEFEFE" transform="scale(0.125 0.125)" d="M395.068 707.124C402.555 707.033 412.259 705.886 418.6 710.522C422.526 713.393 424.788 718.028 425.388 722.787C426.221 729.396 424.113 735.027 420.041 740.111C412.465 746.161 404.138 745.017 395.008 744.94L395.068 707.124Z"/>
	<path fill="#182D40" transform="scale(0.125 0.125)" d="M400.015 711.569C404.932 711.508 410.746 710.953 414.973 713.923C418.12 716.135 419.772 719.978 420.259 723.694C420.903 728.609 419.678 732.843 416.696 736.745C416.589 736.848 416.485 736.956 416.375 737.056C411.502 741.438 406.035 740.643 399.982 740.496L400.015 711.569Z"/>
	<path fill="#FEFEFE" transform="scale(0.125 0.125)" d="M446.685 706.621C450.191 706.354 453.903 707.056 456.978 708.797C461.233 711.205 464.016 715.433 465.19 720.119C466.588 725.695 465.844 732.054 462.86 737.003C459.888 741.932 455.688 744.239 450.282 745.607C445.635 745.629 441.753 745.256 437.736 742.594C433.589 739.845 430.996 735.563 430.042 730.721C428.931 725.079 429.916 718.826 433.321 714.114C436.705 709.432 441.217 707.601 446.685 706.621Z"/>
	<path fill="#182D40" transform="scale(0.125 0.125)" d="M447.404 711.139C449.725 711.163 451.922 711.349 453.989 712.509C457.081 714.244 459.12 717.345 460.01 720.726C461.205 725.263 460.884 730.577 458.476 734.679C456.173 738.602 453.343 740.083 449.044 741.14C446.314 741.052 443.683 740.661 441.302 739.236C438.056 737.293 435.94 734.103 435.208 730.409C434.299 725.829 435.039 720.51 437.775 716.648C440.265 713.133 443.252 711.783 447.404 711.139Z"/>
	<path fill="#FEFEFE" transform="scale(0.125 0.125)" d="M724.226 705.597C731.568 705.52 739.923 704.645 747.063 706.382C750.921 707.321 754.581 709.293 756.601 712.834C758.633 716.396 758.809 721.44 757.657 725.313C756.49 729.236 753.929 731.033 750.492 732.859C752.494 735.986 758.141 742.51 758.216 746.005L756.625 746.166L748.918 746.22L741.615 735.481L733.945 735.542L733.933 746.415L724.244 746.318C723.769 732.794 724.147 719.133 724.226 705.597Z"/>
	<path fill="#182D40" transform="scale(0.125 0.125)" d="M734.085 713.517C738.398 713.432 743.248 712.854 747.021 715.438C748.33 716.335 749.086 717.546 749.233 719.151C749.434 721.351 747.974 724.039 746.617 725.668C742.522 727.844 738.584 727.523 734.083 727.49L734.085 713.517Z"/>
	<path fill="#FEFEFE" transform="scale(0.125 0.125)" d="M631.506 705.979C634.3 705.891 637.108 705.909 639.904 705.879C644.874 713.516 649.056 721.699 653.412 729.697C657.771 721.681 662.137 713.653 667.138 706.014L675.866 705.995C676.047 719.426 675.864 732.88 675.843 746.313L666.772 746.331L666.664 739.371Q666.613 731.039 666.734 722.709C664.379 726.582 658.521 738.963 655.286 741.297C654.083 742.164 653.831 742.1 652.463 741.884C647.828 738.686 643.747 728.709 640.536 723.722L640.568 746.377L631.713 746.274Q631.482 726.126 631.506 705.979Z"/>
	<path fill="#FEFEFE" transform="scale(0.125 0.125)" d="M359.533 385.572C360.999 385.366 362.427 385.215 363.899 385.47C369.944 386.517 374.524 395.636 377.638 400.341C377.62 400.396 377.6 400.451 377.583 400.506C377.013 402.297 376.501 403.977 375.259 405.428C371.108 410.275 365.197 414.014 360.281 418.061C355.184 422.257 350.414 427.109 344.884 430.708C343.602 431.026 342.423 431.237 341.094 431.123C338.637 430.912 336.713 429.846 335.159 427.939C333.053 425.354 327.121 418.422 327.622 414.967C327.955 412.677 330.091 410.216 331.623 408.61C334.73 405.352 338.711 402.598 342.168 399.703C347.772 395.009 353.394 389.517 359.533 385.572Z"/>
	<path fill="#FEFEFE" transform="scale(0.125 0.125)" d="M656.725 383.489C657.843 383.562 658.795 383.695 659.836 384.138C664.293 386.032 693.914 407.665 695.046 411.317C695.668 413.324 695.106 415.433 694.243 417.278C691.976 422.116 687.37 427.906 682.271 429.673C679.072 428.917 645.083 404.699 643.785 401.684C643.302 400.561 643.707 398.941 644.135 397.851C646.21 392.574 651.566 385.785 656.725 383.489Z"/>
	<path fill="#FEFEFE" transform="scale(0.125 0.125)" d="M482.854 322.015C491.393 321.533 500.095 321.886 508.653 321.914C517.812 321.943 526.872 321.68 536.02 321.461C538.381 321.404 540.473 321.685 542.192 323.466C543.842 325.176 544.123 328.322 544.134 330.57C544.152 334.077 544.922 341.423 542.42 343.976C534.581 344.001 484.027 345.035 481.249 343.268C480.606 342.083 480.37 341.045 480.271 339.696C479.897 334.608 479.433 326.068 482.854 322.015Z"/>
	<path fill="#FEFEFE" transform="scale(0.125 0.125)" d="M491.34 347.424C504.867 347.021 518.513 347.421 532.053 347.457L532.173 376.789C532.199 381.496 532.928 387.391 531.889 391.961Q526.866 391.307 521.813 390.948Q516.76 390.588 511.694 390.525Q506.629 390.462 501.568 390.696Q496.508 390.93 491.47 391.459L491.34 347.424Z"/>
	<path fill="#FEFEFE" transform="scale(0.125 0.125)" d="M504.398 253.695Q505.969 253.546 507.545 253.464Q509.122 253.382 510.7 253.368Q512.278 253.354 513.856 253.407Q515.433 253.46 517.007 253.58Q518.581 253.7 520.148 253.888Q521.715 254.075 523.273 254.329Q524.83 254.583 526.376 254.904Q527.921 255.224 529.452 255.61Q530.982 255.997 532.494 256.448Q534.007 256.899 535.499 257.414Q536.991 257.929 538.459 258.508Q539.928 259.086 541.37 259.727Q542.812 260.368 544.226 261.069Q545.64 261.771 547.022 262.532Q548.405 263.294 549.754 264.114Q551.102 264.933 552.415 265.81Q553.878 266.796 555.291 267.853Q556.704 268.91 558.063 270.034Q559.423 271.159 560.726 272.349Q562.029 273.538 563.271 274.791Q564.514 276.043 565.695 277.354Q566.875 278.666 567.989 280.034Q569.104 281.402 570.15 282.822Q571.196 284.243 572.171 285.713Q573.147 287.184 574.049 288.7Q574.951 290.216 575.778 291.775Q576.605 293.333 577.354 294.931Q578.104 296.528 578.774 298.16Q579.445 299.792 580.034 301.455Q580.624 303.118 581.131 304.808Q581.639 306.497 582.063 308.21Q582.487 309.923 582.827 311.654Q583.168 313.42 583.422 315.2Q583.675 316.98 583.841 318.771Q584.006 320.562 584.083 322.359Q584.16 324.155 584.148 325.954Q584.137 327.752 584.036 329.547Q583.936 331.343 583.748 333.131Q583.559 334.92 583.282 336.697Q583.006 338.474 582.642 340.235Q582.278 341.996 581.828 343.737Q581.378 345.478 580.842 347.195Q580.307 348.912 579.687 350.6Q579.068 352.288 578.366 353.944Q577.664 355.599 576.881 357.219Q576.099 358.838 575.237 360.416Q574.375 361.995 573.437 363.529Q572.499 365.063 571.486 366.549C563.257 378.642 550.117 389.941 535.396 392.681L535.276 383.234C541.544 380.621 547.31 377.567 552.552 373.201Q553.711 372.25 554.821 371.242Q555.932 370.234 556.99 369.172Q558.049 368.111 559.054 366.997Q560.058 365.884 561.006 364.723Q561.954 363.561 562.843 362.353Q563.732 361.146 564.56 359.896Q565.388 358.646 566.153 357.356Q566.918 356.066 567.617 354.74Q568.317 353.414 568.949 352.054Q569.582 350.695 570.146 349.306Q570.711 347.916 571.205 346.501Q571.7 345.085 572.123 343.647Q572.547 342.208 572.898 340.751Q573.25 339.293 573.528 337.82Q573.807 336.346 574.011 334.861Q574.216 333.376 574.347 331.882C575.813 315.257 571.16 297.743 560.258 284.898Q559.275 283.763 558.24 282.677Q557.204 281.591 556.118 280.555Q555.032 279.52 553.897 278.537Q552.763 277.554 551.583 276.627Q550.403 275.699 549.18 274.829Q547.957 273.959 546.694 273.149Q545.431 272.338 544.13 271.588Q542.83 270.839 541.495 270.152Q540.161 269.466 538.795 268.843Q537.429 268.221 536.035 267.665Q534.641 267.109 533.222 266.62Q531.803 266.131 530.363 265.71Q528.922 265.289 527.463 264.937Q526.004 264.586 524.53 264.304Q523.055 264.023 521.569 263.812Q520.083 263.601 518.589 263.461C508.606 262.643 498.442 263.493 488.98 266.948C473.702 272.526 461.031 284.785 454.242 299.481Q453.591 300.899 453.011 302.348Q452.431 303.797 451.923 305.272Q451.415 306.748 450.98 308.247Q450.545 309.745 450.185 311.264Q449.825 312.782 449.54 314.317Q449.255 315.851 449.046 317.397Q448.837 318.944 448.705 320.499Q448.572 322.054 448.516 323.613Q448.461 325.173 448.482 326.733Q448.503 328.294 448.602 329.851Q448.7 331.408 448.875 332.959Q449.049 334.51 449.301 336.05Q449.552 337.59 449.878 339.116Q450.205 340.642 450.607 342.15Q451.008 343.658 451.484 345.145Q451.959 346.631 452.507 348.092C459.297 365.912 471.737 376.56 488.787 384.219C488.586 386.918 488.572 389.659 488.478 392.366C480.338 391.062 473.183 387.595 466.637 382.648C452.094 371.656 441.872 355.08 439.463 336.932Q439.209 335.135 439.043 333.327Q438.878 331.519 438.802 329.705Q438.726 327.892 438.739 326.076Q438.752 324.261 438.855 322.449Q438.958 320.636 439.15 318.831Q439.342 317.026 439.622 315.233Q439.903 313.439 440.272 311.662Q440.641 309.884 441.096 308.127Q441.552 306.37 442.094 304.637Q442.636 302.905 443.263 301.201Q443.889 299.497 444.599 297.826Q445.309 296.156 446.1 294.522Q446.892 292.888 447.763 291.295Q448.633 289.703 449.582 288.155Q450.53 286.607 451.553 285.107Q452.577 283.608 453.673 282.161C466.196 265.827 484.153 256.274 504.398 253.695Z"/>
	<path fill="#FEFEFE" transform="scale(0.125 0.125)" d="M174.996 764.1C201.105 763.753 227.276 764.321 253.395 764.306L423.084 764.07L849.656 764.19L849.583 772.056L174.928 771.605L174.996 764.1Z"/>
	<path fill="#FEFEFE" transform="scale(0.125 0.125)" d="M498.593 394.283C517.782 392.789 538.083 394.441 556.942 398.174Q559.551 398.717 562.147 399.323Q564.742 399.929 567.321 400.598Q569.901 401.267 572.464 401.999Q575.026 402.731 577.57 403.525Q580.114 404.32 582.638 405.176Q585.162 406.032 587.664 406.949Q590.167 407.867 592.646 408.845Q595.125 409.823 597.579 410.861Q600.034 411.9 602.462 412.998Q604.891 414.096 607.291 415.252Q609.692 416.409 612.064 417.624Q614.436 418.839 616.778 420.112Q619.12 421.385 621.429 422.714Q623.739 424.043 626.016 425.429Q628.293 426.814 630.535 428.254Q632.777 429.695 634.984 431.189Q637.19 432.684 639.36 434.232Q641.529 435.78 643.66 437.381Q645.791 438.981 647.882 440.633Q649.973 442.286 652.024 443.988Q654.074 445.691 656.082 447.443Q658.09 449.195 660.055 450.996Q662.02 452.796 663.94 454.644Q665.861 456.492 667.735 458.386Q669.61 460.281 671.438 462.22Q673.266 464.159 675.046 466.143Q676.826 468.126 678.557 470.153Q680.288 472.179 681.969 474.247Q683.651 476.315 685.281 478.423Q686.911 480.531 688.489 482.679Q690.068 484.826 691.593 487.012Q693.118 489.197 694.59 491.419Q695.959 493.47 697.283 495.55Q698.607 497.629 699.885 499.738Q701.164 501.846 702.396 503.981Q703.629 506.117 704.814 508.278Q706 510.44 707.139 512.627Q708.277 514.814 709.368 517.025Q710.459 519.236 711.501 521.471Q712.544 523.705 713.537 525.962Q714.531 528.218 715.475 530.495Q716.42 532.773 717.314 535.07Q718.209 537.368 719.054 539.684Q719.898 542.001 720.692 544.335Q721.486 546.669 722.23 549.02Q722.973 551.371 723.665 553.737Q724.357 556.104 724.997 558.485Q725.637 560.866 726.226 563.26Q726.814 565.654 727.351 568.061Q727.887 570.467 728.371 572.885Q728.855 575.303 729.286 577.73Q729.718 580.158 730.096 582.594Q730.475 585.03 730.8 587.474Q731.126 589.918 731.398 592.369Q731.67 594.819 731.889 597.275Q732.108 599.731 732.274 602.191Q732.44 604.651 732.552 607.114Q732.664 609.577 732.722 612.042Q732.781 614.507 732.786 616.972Q732.791 619.438 732.743 621.903Q732.694 624.368 732.592 626.831Q732.49 629.295 732.335 631.755Q732.179 634.216 731.97 636.673Q731.761 639.129 731.499 641.581C730.411 652.434 728.098 663.153 725.974 673.841L850.31 673.936L850.247 681.373L525.875 681.172L174.857 681.4L174.884 674.325L297.021 674.215C294.255 659.716 291.361 645.223 290.607 630.447Q290.458 627.652 290.378 624.855Q290.298 622.057 290.287 619.259Q290.275 616.46 290.332 613.662Q290.39 610.864 290.516 608.068Q290.642 605.272 290.836 602.48Q291.031 599.689 291.294 596.902Q291.557 594.116 291.888 591.337Q292.219 588.558 292.619 585.788Q293.018 583.018 293.486 580.259Q293.953 577.5 294.488 574.753Q295.023 572.006 295.625 569.273Q296.227 566.539 296.897 563.822Q297.566 561.104 298.301 558.404Q299.037 555.704 299.839 553.023Q300.64 550.341 301.508 547.681Q302.375 545.02 303.307 542.381Q304.24 539.742 305.236 537.127Q306.233 534.512 307.294 531.922Q308.355 529.332 309.479 526.769Q310.603 524.206 311.789 521.672Q312.976 519.137 314.224 516.632Q315.473 514.128 316.782 511.654Q318.092 509.181 319.462 506.74Q320.832 504.3 322.261 501.894Q323.69 499.488 325.178 497.118Q326.666 494.747 328.212 492.414Q329.758 490.081 331.36 487.787Q332.963 485.492 334.621 483.238Q336.279 480.984 337.993 478.771Q339.706 476.558 341.473 474.388Q343.24 472.217 345.06 470.091Q346.88 467.965 348.751 465.884C386.668 424.106 442.16 397.033 498.593 394.283Z"/>
	<path fill="#182D40" transform="scale(0.125 0.125)" d="M661.245 525.533C662.151 525.553 663.087 525.563 663.982 525.715C665.749 526.015 667.447 527.025 668.273 528.66C668.79 529.683 668.795 530.641 668.438 531.712C666.664 537.045 652.64 544.882 647.612 547.628C645.284 547.624 643.156 547.618 641.425 545.842C640.396 544.786 639.566 543.323 639.825 541.81C640.697 536.72 656.513 528.245 661.245 525.533Z"/>
	<path fill="#182D40" transform="scale(0.125 0.125)" d="M360.507 525.436C365.862 525.372 381.729 534.435 385.991 537.924C387.248 538.953 388.11 539.968 388.106 541.703C388.101 544.166 386.47 546.162 384.722 547.705C384.311 547.701 383.9 547.706 383.489 547.69C379.194 547.521 360.737 537.482 357.909 534.14Q357.757 533.961 357.626 533.766Q357.495 533.572 357.386 533.364Q357.277 533.156 357.191 532.937Q357.106 532.718 357.045 532.492Q356.984 532.265 356.949 532.033Q356.913 531.801 356.903 531.566Q356.894 531.331 356.91 531.097Q356.926 530.863 356.968 530.632C357.355 528.46 358.92 526.828 360.507 525.436Z"/>
	<path fill="#182D40" transform="scale(0.125 0.125)" d="M338.217 608.584C345.458 608.48 352.809 608.121 360.041 608.37C362.635 608.459 365.996 608.814 367.695 611.07C368.412 612.022 368.533 613.036 368.424 614.188C368.169 616.887 367.027 617.968 365.013 619.579C360.952 619.962 344.826 620.477 341.238 619.991C339.074 619.697 336.941 618.628 335.631 616.845C334.736 615.627 334.372 614.151 334.722 612.657C335.202 610.603 336.477 609.585 338.217 608.584Z"/>
	<path fill="#182D40" transform="scale(0.125 0.125)" d="M600.469 464.438C602.829 464.501 605.412 464.597 607.049 466.574C608.085 467.826 608.186 469.687 607.909 471.224C607.121 475.611 596.205 492.655 592.541 495.095C590.524 495.406 588.188 495.589 586.515 494.16C585.273 493.101 585.073 491.63 585.177 490.1C585.535 484.808 596.345 468.159 600.469 464.438Z"/>
	<path fill="#182D40" transform="scale(0.125 0.125)" d="M675.602 609.263C679.329 609.123 685.722 608.332 688.758 611.119C689.817 612.091 690.155 612.834 690.191 614.269C690.232 615.876 689.301 617.871 688.204 619.015C685.104 622.251 674.194 620.928 669.757 620.85C666.41 620.863 659.967 621.535 657.271 619.176C656.178 618.219 655.758 617.275 655.656 615.835C655.538 614.162 656.346 611.76 657.615 610.639C660.528 608.065 671.476 609.263 675.602 609.263Z"/>
	<path fill="#182D40" transform="scale(0.125 0.125)" d="M512.961 438.494C515.538 438.787 517.228 439.007 519.032 441.01C520.172 444.329 520.971 467.645 519.702 470.56C518.843 472.531 517.188 473.214 515.367 474.097Q514.849 474.061 514.334 474.002C512.535 473.791 510.774 473.17 509.757 471.555C508.418 469.427 507.826 445.528 508.76 442.539C509.354 440.639 511.411 439.506 512.961 438.494Z"/>
	<path fill="#182D40" transform="scale(0.125 0.125)" d="M417.49 463.979C419.362 464.079 421.108 464.198 422.453 465.707C425.466 469.086 440.064 489.068 439.827 492.456C439.652 494.954 437.766 496.103 435.978 497.582C435.842 497.59 435.705 497.602 435.568 497.606C434.029 497.644 432.636 497.587 431.499 496.423C428.832 493.694 415.366 474.48 413.879 471.004C413.513 470.149 413.376 469.46 413.542 468.53C413.929 466.356 415.846 465.186 417.49 463.979Z"/>
	<path fill="#182D40" transform="scale(0.125 0.125)" d="M492.157 447.379C492.993 453.013 494.778 458.766 496.017 464.353L503.32 498.344Q514.305 549.997 523.479 602.002C527.283 602.859 530.543 604.301 533.443 606.976C537.458 610.679 539.831 616.499 539.804 621.937C539.777 627.153 537.408 631.827 533.62 635.339C529.57 639.092 524.307 641.187 518.765 640.896C513.476 640.619 508.4 638.281 504.968 634.212C501.369 629.946 500.157 624.856 500.595 619.4C495.338 613.053 488.64 607.371 482.7 601.645L450.627 570.839Q440.027 560.3 429.282 549.909C424.885 545.597 420.141 541.331 416.279 536.528C425.287 543.551 506.198 605.109 507.519 605.428C508.241 605.602 508.44 605.196 508.98 604.796C509.532 603.339 509.616 602.178 509.547 600.621C509.382 596.898 508.568 593.05 508.126 589.335Q506.534 575.721 504.803 562.124Q499.398 521.261 494.975 480.28C493.938 470.114 491.835 457.971 492.132 447.954C492.138 447.763 492.149 447.571 492.157 447.379Z"/>
	<path fill="#FEFEFE" transform="scale(0.125 0.125)" d="M516.07 605.111C519.336 604.751 522.441 604.802 525.57 605.939Q526.322 606.206 527.042 606.55Q527.763 606.894 528.443 607.311Q529.124 607.728 529.758 608.213Q530.392 608.698 530.971 609.247Q531.551 609.795 532.071 610.401Q532.591 611.007 533.044 611.664Q533.498 612.32 533.882 613.021Q534.265 613.721 534.573 614.457Q534.744 614.858 534.894 615.268Q535.043 615.677 535.172 616.094Q535.3 616.51 535.406 616.933Q535.513 617.356 535.597 617.784Q535.681 618.212 535.743 618.643Q535.806 619.075 535.845 619.509Q535.885 619.943 535.901 620.379Q535.918 620.814 535.913 621.25Q535.907 621.686 535.879 622.121Q535.85 622.556 535.799 622.989Q535.748 623.422 535.675 623.852Q535.602 624.282 535.506 624.707Q535.411 625.133 535.293 625.552Q535.176 625.972 535.036 626.386Q534.897 626.799 534.737 627.204Q534.576 627.609 534.395 628.006C532.148 632.849 528.336 635.341 523.536 637.168C520.44 637.65 517.429 637.503 514.479 636.39Q514.067 636.232 513.664 636.054Q513.261 635.875 512.868 635.675Q512.475 635.476 512.093 635.256Q511.711 635.036 511.341 634.797Q510.971 634.557 510.614 634.299Q510.256 634.04 509.913 633.764Q509.57 633.487 509.241 633.193Q508.913 632.899 508.6 632.588Q508.288 632.277 507.992 631.951Q507.696 631.624 507.417 631.283Q507.138 630.941 506.878 630.585Q506.618 630.229 506.376 629.861Q506.134 629.492 505.912 629.111Q505.69 628.73 505.488 628.338Q505.286 627.946 505.105 627.545Q504.924 627.143 504.764 626.732Q504.466 625.987 504.246 625.215Q504.026 624.444 503.887 623.654Q503.748 622.863 503.691 622.063Q503.634 621.263 503.66 620.461Q503.686 619.659 503.795 618.864Q503.903 618.069 504.093 617.289Q504.283 616.51 504.552 615.754Q504.821 614.998 505.167 614.274C507.405 609.509 511.282 606.905 516.07 605.111Z"/>
	<path fill="#182D40" transform="scale(0.125 0.125)" d="M502.33 417.21C518.344 415.125 542.152 417.9 557.848 421.518Q560.215 422.051 562.568 422.642Q564.921 423.234 567.258 423.883Q569.595 424.533 571.916 425.241Q574.236 425.949 576.538 426.714Q578.84 427.48 581.123 428.302Q583.405 429.125 585.666 430.004Q587.927 430.883 590.166 431.819Q592.405 432.754 594.619 433.745Q596.834 434.735 599.023 435.781Q601.212 436.826 603.375 437.926Q605.537 439.026 607.671 440.179Q609.806 441.332 611.911 442.538Q614.016 443.744 616.09 445.002Q618.164 446.261 620.207 447.57Q622.249 448.879 624.258 450.239Q626.267 451.599 628.242 453.009Q630.216 454.418 632.155 455.876Q634.094 457.335 635.996 458.841Q637.898 460.347 639.762 461.9Q641.626 463.453 643.45 465.052Q645.275 466.65 647.059 468.294Q648.843 469.938 650.586 471.626Q652.329 473.314 654.029 475.045Q655.729 476.775 657.385 478.548Q659.042 480.32 660.654 482.133Q662.265 483.947 663.832 485.799Q665.398 487.652 666.917 489.543Q668.437 491.435 669.909 493.363Q671.38 495.292 672.804 497.256Q674.227 499.221 675.601 501.22Q676.975 503.22 678.299 505.253Q679.623 507.286 680.896 509.351C703.026 544.804 713.148 589.637 710.329 631.191C709.347 645.673 706.483 659.892 703.21 674.004L687.89 673.986Q689.748 668.089 691.216 662.084Q692.685 656.078 693.756 649.989Q694.828 643.901 695.498 637.755Q696.169 631.609 696.435 625.432C698.496 573.326 680.803 524.119 645.288 485.818C614.479 452.591 569.014 432.145 523.768 430.387Q517.012 429.923 510.241 429.968Q503.469 430.013 496.72 430.567Q489.971 431.121 483.283 432.181Q476.595 433.24 470.005 434.8Q467.777 435.338 465.563 435.929Q463.349 436.52 461.15 437.165Q458.951 437.81 456.768 438.508Q454.585 439.206 452.42 439.957Q450.255 440.708 448.108 441.511Q445.962 442.314 443.836 443.169Q441.709 444.023 439.604 444.929Q437.499 445.835 435.417 446.792Q433.334 447.749 431.276 448.756Q429.217 449.763 427.184 450.82Q425.15 451.876 423.143 452.982Q421.135 454.087 419.155 455.241Q417.175 456.395 415.224 457.597Q413.272 458.798 411.35 460.047Q409.429 461.295 407.538 462.59Q405.647 463.885 403.788 465.225Q401.929 466.565 400.103 467.95Q398.277 469.334 396.485 470.763Q394.693 472.192 392.936 473.663Q391.179 475.135 389.459 476.649Q387.738 478.163 386.055 479.718Q384.371 481.273 382.726 482.868Q381.081 484.464 379.475 486.098Q377.869 487.733 376.303 489.406Q374.737 491.08 373.212 492.79Q371.687 494.501 370.204 496.248Q368.721 497.995 367.281 499.778Q365.841 501.561 364.444 503.378Q363.047 505.195 361.695 507.045Q360.343 508.895 359.036 510.778Q357.729 512.66 356.468 514.574Q355.207 516.487 353.993 518.431C331.2 555.708 322.978 600.678 328.448 643.821C329.763 654.196 332.092 664.225 334.552 674.382Q327.66 674.339 320.771 674.511C317.384 661.534 315.017 647.898 314.071 634.512C310.159 579.192 326.713 526.55 363.163 484.544Q364.46 483.051 365.787 481.583Q367.114 480.116 368.471 478.676Q369.827 477.236 371.212 475.823Q372.596 474.411 374.009 473.026Q375.422 471.642 376.863 470.286Q378.303 468.93 379.77 467.603Q381.238 466.276 382.732 464.979Q384.225 463.682 385.745 462.415Q387.264 461.149 388.809 459.913Q390.353 458.677 391.922 457.472Q393.492 456.267 395.085 455.094Q396.677 453.921 398.294 452.781Q399.91 451.64 401.549 450.532Q403.187 449.424 404.848 448.349Q406.509 447.274 408.191 446.233Q409.873 445.191 411.575 444.184Q413.278 443.176 415 442.203Q416.722 441.23 418.464 440.292Q420.206 439.354 421.966 438.451Q423.726 437.548 425.504 436.68Q427.281 435.813 429.076 434.981Q430.871 434.149 432.682 433.354Q434.494 432.558 436.321 431.799Q438.147 431.04 439.989 430.318Q441.831 429.596 443.687 428.911Q445.543 428.226 447.412 427.579Q449.281 426.931 451.163 426.321Q453.045 425.711 454.938 425.139Q456.832 424.567 458.737 424.033Q460.642 423.499 462.557 423.004Q464.472 422.508 466.397 422.051Q468.322 421.594 470.255 421.176C480.845 418.954 491.552 417.963 502.33 417.21Z"/>
</svg>
