<svg xmlns="http://www.w3.org/2000/svg" width="128" height="128">
    <path fill="#FEFEFE"
          d="M45.187 88.382c.852.008 2.819-.145 3.532.05.07.165.05.275.039.45-.278.17-1.162.065-1.522.065-.01.882.002 1.765.004 2.647-.002.406.13 1.181-.123 1.494-.164.052-.199.06-.366.026-.267-.33-.127-3.488-.126-4.158-.455-.01-.93.122-1.354-.07-.112-.173-.082-.3-.084-.504ZM33.694 88.332c.603-.025 1.05.202 1.541.514a2.49 2.49 0 0 1-.414.428c-.244-.146-.534-.32-.817-.365-.274-.044-.654.037-.864.225-.147.133-.26.381-.243.579.055.657 1.675.953 2.157 1.374.193.168.336.383.347.644.013.344-.229.857-.467 1.096-.375.377-1.004.362-1.497.365-.553-.1-.922-.286-1.382-.601.082-.077.385-.394.507-.378.39.05.804.589 1.552.466a.666.666 0 0 0 .469-.314c.117-.187.196-.449.118-.665-.21-.583-1.366-.728-1.876-1.013a.996.996 0 0 1-.51-.653 1.4 1.4 0 0 1 .176-1.07c.274-.424.733-.547 1.203-.632ZM76.394 88.258l1.209-.006c.027 1.672.015 3.347.02 5.02l-1.243-.002.014-5.012ZM40.934 88.397c.185-.004.337-.003.518.048.256.399.063 2.1.065 2.644.001.429.054.937.391 1.243.273.248.68.306 1.036.277 1.98-.156.575-3.373 1.282-4.219.167-.065.168-.064.339-.011.133.158.108.216.116.418.004 1.097.26 3.125-.567 3.937-.362.356-.866.457-1.358.455-.489-.001-.983-.11-1.334-.473-.799-.827-.506-3.194-.488-4.319ZM39.244 90.497c.007-.486-.054-.978-.027-1.461.014-.251.046-.428.24-.601.149-.036.17-.054.308.004.247.462.11 3.952.111 4.692-.21.006-.4.01-.607-.033-.11-.634-.042-1.401-.045-2.05h-2.531c-.006.393.11 1.527-.017 1.82-.061.141-.148.256-.294.314-.093.038-.112.005-.198-.03-.087-.106-.108-.207-.117-.34-.028-.37.026-.756.024-1.127l-.016-3.252q.294-.001.59.002c.133.451.024 1.548.02 2.063h2.56ZM65.275 88.38c.12-.005.269-.024.387-.005.32.052 2.356 3.21 2.654 3.665.007-.603.023-1.209.01-1.811-.01-.457-.093-.95-.032-1.403a.731.731 0 0 1 .172-.39c.153-.068.184-.08.348-.063.226.392.114 4.06.117 4.741-.13.026-.237.049-.37.03-.394-.055-2.273-3.056-2.676-3.58-.002.654.127 3.158-.09 3.54-.159.045-.286.028-.445.01-.178-.368-.077-4.015-.075-4.734ZM46.527 51.484c.276.284.504.659.748.975.31.402.646.781.984 1.16-.775.693-1.718 1.273-2.541 1.922l-.053.006c-.365-.15-1.351-1.618-1.612-2.007.745-.733 1.646-1.419 2.474-2.056ZM81.329 51.561c.947.465 1.872 1.257 2.731 1.873a42.244 42.244 0 0 0-1.561 2.27l-.048.024c-.392-.148-2.1-1.61-2.566-1.97.477-.735.97-1.459 1.444-2.197ZM71.231 88.252l4.392-.017-.002.96h-1.569l.013 2.524.003 1.568h-1.204l.002-4.052q-.816.008-1.63-.013l-.005-.97ZM60.259 92.093c.46-1.184.697-2.444 1.117-3.64.138-.102.21-.079.375-.086.397.322 1.008 3.17 1.186 3.845.14-.505.847-3.532 1.076-3.757.082-.08.317-.087.425-.07.116.017.078.006.152.106l-.183.618c-.424 1.22-.684 2.75-1.188 3.892-.155.13-.29.093-.489.099-.266-.188-.944-3.107-1.11-3.631-.278.752-.489 1.537-.705 2.31-.119.424-.199.912-.406 1.299a1.088 1.088 0 0 1-.498 0c-.138-.18-1.342-4.142-1.495-4.686.201-.013.385-.015.585.007.35.253.987 3.07 1.158 3.694ZM85.74 88.224l3.787.002-.004.98h-2.56l-.01 1.028 2.307.009.003.963-2.18.002-.046.038c-.102.314-.047.734-.043 1.065l2.628.002v.96l-3.878.002-.004-5.052ZM49.383 88.39c.936-.01 2.15-.154 2.942.425.49.36.773.939.848 1.533.105.826-.159 1.53-.668 2.166-.947.756-1.988.613-3.129.604l.008-4.727Z"/>
    <path fill="#182D40"
          d="M50.002 88.946c.614-.007 1.341-.077 1.87.294.393.277.6.757.66 1.222.08.614-.072 1.143-.445 1.631l-.04.039c-.61.548-1.293.448-2.05.43l.005-3.616Z"/>
    <path fill="#FEFEFE"
          d="M55.836 88.328c.438-.034.902.054 1.286.272.532.3.88.83 1.027 1.415.175.697.081 1.492-.291 2.11-.372.617-.897.905-1.573 1.076-.58.003-1.066-.044-1.568-.377-.518-.343-.843-.879-.962-1.484-.139-.705-.016-1.487.41-2.076.423-.585.987-.814 1.67-.936Z"/>
    <path fill="#182D40"
          d="M55.925 88.892c.29.003.565.027.824.172.386.217.641.604.752 1.027.15.567.11 1.231-.191 1.744-.288.49-.642.675-1.18.808-.34-.011-.67-.06-.967-.239a1.637 1.637 0 0 1-.762-1.103c-.114-.572-.021-1.237.32-1.72.312-.44.686-.608 1.205-.689Z"/>
    <path fill="#FEFEFE"
          d="M90.528 88.2c.918-.01 1.962-.12 2.855.098.482.117.94.364 1.192.806.254.445.276 1.076.132 1.56-.146.49-.466.715-.895.943.25.391.956 1.207.965 1.644l-.199.02-.963.007-.913-1.343-.959.008-.001 1.359-1.212-.012c-.059-1.69-.012-3.398-.002-5.09Z"/>
    <path fill="#182D40"
          d="M91.76 89.19c.54-.011 1.146-.083 1.618.24a.604.604 0 0 1 .276.464c.025.275-.157.61-.327.814-.512.273-1.004.232-1.567.228V89.19Z"/>
    <path fill="#FEFEFE"
          d="M78.938 88.247c.35-.01.7-.008 1.05-.012.621.954 1.144 1.977 1.689 2.977.544-1.002 1.09-2.005 1.715-2.96l1.091-.003c.023 1.68 0 3.361-.003 5.04l-1.133.002-.014-.87q-.006-1.041.009-2.082c-.295.484-1.027 2.031-1.431 2.323-.15.108-.182.1-.353.073-.58-.4-1.09-1.646-1.491-2.27l.004 2.832-1.107-.013q-.029-2.518-.026-5.037ZM44.942 48.197c.183-.026.361-.045.545-.013.756.13 1.328 1.27 1.718 1.859l-.007.02c-.071.224-.135.434-.29.615-.52.606-1.258 1.074-1.873 1.58-.637.524-1.233 1.13-1.924 1.58-.16.04-.308.067-.474.052a1.029 1.029 0 0 1-.742-.398c-.263-.323-1.005-1.19-.942-1.621.041-.286.308-.594.5-.795.388-.407.886-.751 1.318-1.113.7-.587 1.403-1.273 2.17-1.767ZM82.09 47.936c.14.01.26.026.39.081.557.237 4.26 2.941 4.4 3.398.079.25.008.514-.1.745-.283.605-.859 1.328-1.496 1.55-.4-.095-4.649-3.123-4.81-3.5-.061-.14-.01-.342.043-.479.26-.66.929-1.508 1.574-1.795ZM60.357 40.252c1.067-.06 2.155-.016 3.225-.013 1.145.004 2.277-.029 3.42-.056.296-.008.557.028.772.25.206.214.241.607.243.888.002.439.098 1.357-.215 1.676-.98.003-7.299.132-7.646-.089a1.02 1.02 0 0 1-.122-.446c-.047-.636-.105-1.704.323-2.21ZM61.417 43.428c1.691-.05 3.397 0 5.09.004l.015 3.667c.003.588.094 1.325-.036 1.896q-.628-.082-1.26-.127-.631-.044-1.264-.052t-1.266.021q-.633.03-1.262.095l-.017-5.504Z"/>
    <path fill="#FEFEFE"
          d="M63.05 31.712q.196-.019.393-.029.197-.01.395-.012.197-.002.394.005t.394.022q.197.014.392.038.196.023.391.055t.388.072q.193.04.385.088.19.049.38.105.189.056.375.12.187.065.37.137.184.073.364.153t.357.168q.177.087.35.182.173.096.341.198.169.103.333.212.183.123.36.256.176.132.346.272.17.14.333.29.163.148.318.305.155.156.303.32.147.164.287.335.139.171.27.349.13.177.252.361t.235.373q.113.19.216.385.104.195.197.394.094.2.178.404.084.204.157.412.074.208.137.419.064.211.117.425.053.214.095.43.043.221.075.444.031.223.052.446.02.224.03.449.01.224.008.45 0 .224-.014.448-.012.225-.035.448-.024.224-.059.446-.034.222-.08.442-.045.22-.102.438-.056.218-.123.432-.067.215-.144.426-.078.211-.165.418-.088.207-.186.41-.098.202-.205.399-.108.197-.225.39-.118.19-.244.377c-1.029 1.511-2.671 2.924-4.512 3.266l-.015-1.18c.784-.327 1.505-.71 2.16-1.255q.145-.119.284-.245.139-.126.27-.258.133-.133.259-.272.125-.14.244-.285.118-.145.23-.296.11-.15.214-.307.104-.156.2-.318.095-.16.182-.326.088-.166.167-.336.079-.17.15-.344.07-.173.132-.35t.114-.357q.053-.18.097-.362.044-.182.079-.367.035-.184.06-.37.026-.185.042-.372c.184-2.078-.398-4.267-1.76-5.873q-.124-.142-.253-.277-.13-.136-.265-.266-.136-.129-.278-.252-.142-.123-.29-.239-.147-.116-.3-.224-.152-.11-.31-.21-.158-.102-.32-.195-.163-.094-.33-.18t-.338-.164q-.17-.077-.345-.147-.174-.07-.351-.13-.178-.062-.358-.114-.18-.053-.362-.097-.183-.044-.367-.079t-.37-.061q-.186-.027-.372-.044c-1.248-.103-2.519.004-3.701.435-1.91.698-3.494 2.23-4.343 4.067q-.081.177-.154.358-.072.182-.136.366-.063.184-.117.372-.055.187-.1.377-.045.19-.08.382-.036.191-.062.385-.026.193-.043.387-.017.195-.023.39-.007.195-.005.39.003.195.015.39.012.194.034.388.022.194.054.386.031.193.072.383.04.191.09.38.051.188.11.374.06.186.128.368c.85 2.228 2.404 3.559 4.535 4.516-.025.338-.026.68-.038 1.019-1.018-.163-1.912-.597-2.73-1.215-1.818-1.374-3.096-3.446-3.397-5.715q-.032-.224-.053-.45-.02-.226-.03-.453-.01-.227-.008-.453.002-.227.015-.454.013-.226.037-.452t.059-.45q.035-.224.081-.446t.103-.442q.057-.22.125-.436.068-.217.146-.43.078-.213.167-.422.089-.209.188-.413t.207-.403q.11-.2.228-.393.118-.193.246-.38.128-.188.265-.369c1.566-2.042 3.81-3.236 6.34-3.558ZM21.875 95.513c3.263-.044 6.535.027 9.8.025l21.21-.03 53.322.016-.01.983-84.331-.056.009-.938ZM62.324 49.285c2.399-.186 4.936.02 7.294.487q.326.068.65.143.325.076.647.16.323.083.643.175.32.091.638.19.318.1.634.207.315.107.628.222.313.114.623.237.31.122.616.252.307.13.61.267.304.137.604.282.3.144.597.296t.59.311q.292.16.58.325.29.166.574.34.285.173.565.353.28.18.556.367t.547.38q.271.193.537.394.267.2.528.406.262.207.518.42.256.212.507.431.251.22.497.444.245.225.486.456.24.232.474.468.234.237.463.48.228.242.45.49.223.248.44.501.216.253.426.512.21.258.414.522.204.263.401.532.197.268.388.541.19.274.375.551.17.257.336.517t.326.523q.16.264.313.53.155.268.303.538t.29.543q.143.274.279.55.136.276.267.556.13.28.254.561.124.282.242.567t.23.572q.112.287.218.576.105.29.204.582.1.292.193.585.093.294.18.59.086.296.166.594.08.297.153.596.074.3.14.6.068.301.128.604.06.302.115.605.054.304.101.608.047.305.088.61.04.306.075.612.034.306.061.613.027.307.048.615.021.307.035.615.014.308.021.616.008.308.008.617 0 .308-.005.616-.006.308-.019.616t-.032.615q-.02.308-.046.615t-.059.614c-.136 1.356-.425 2.696-.69 4.032l15.542.012-.008.93-40.547-.025-43.877.028.003-.884 15.268-.014c-.346-1.813-.708-3.624-.802-5.471q-.019-.35-.029-.7-.01-.349-.011-.699-.002-.35.005-.7.008-.349.024-.698.015-.35.04-.699.024-.349.057-.697.033-.349.074-.696.041-.347.091-.694.05-.346.109-.69.058-.346.125-.689.067-.343.142-.685.075-.342.16-.681.083-.34.175-.677.092-.338.192-.673t.209-.668q.108-.332.224-.662.117-.33.242-.657.124-.327.257-.65.132-.325.273-.645.14-.32.289-.637.148-.317.304-.63t.32-.622q.163-.31.335-.614.171-.306.35-.606.178-.301.364-.597.186-.297.38-.588.193-.292.393-.579.2-.286.408-.568.207-.282.421-.559.214-.276.435-.547.221-.272.449-.538.227-.265.46-.526c4.74-5.222 11.677-8.606 18.731-8.95Z"/>
    <path fill="#182D40"
          d="M82.656 65.692c.113.002.23.003.342.022.22.038.433.164.536.368a.465.465 0 0 1 .02.382c-.221.667-1.974 1.646-2.603 1.99-.29-.001-.556-.002-.773-.224-.129-.132-.232-.315-.2-.504.11-.636 2.086-1.695 2.678-2.034ZM45.063 65.68c.67-.009 2.653 1.124 3.186 1.56.157.13.265.256.264.473 0 .308-.204.557-.423.75-.051 0-.103 0-.154-.002-.537-.02-2.844-1.276-3.197-1.694q-.02-.022-.036-.046l-.03-.05-.024-.054q-.01-.027-.018-.056-.008-.028-.012-.057-.005-.029-.006-.058v-.059q.003-.03.008-.058c.048-.271.244-.475.442-.65ZM42.277 76.073c.905-.013 1.824-.058 2.728-.027.324.011.744.056.957.338.09.119.105.245.091.39-.032.337-.175.472-.426.673-.508.048-2.524.113-2.972.052a1.044 1.044 0 0 1-.701-.393.63.63 0 0 1-.114-.524c.06-.257.22-.384.437-.509ZM75.059 58.055c.295.008.618.02.822.267.13.156.142.389.108.581-.099.548-1.463 2.679-1.921 2.984-.252.039-.544.062-.754-.117-.155-.132-.18-.316-.167-.508.045-.661 1.396-2.742 1.912-3.207ZM84.45 76.158c.466-.018 1.265-.117 1.645.232a.47.47 0 0 1 .179.394c.005.2-.111.45-.249.593-.387.404-1.75.239-2.305.23-.419 0-1.224.085-1.561-.21a.546.546 0 0 1-.202-.418c-.015-.209.086-.509.245-.65.364-.32 1.733-.171 2.248-.171ZM64.12 54.812c.322.036.533.064.759.314.142.415.242 3.33.084 3.694-.108.246-.314.332-.542.442q-.065-.004-.13-.012c-.224-.026-.444-.104-.571-.306-.168-.266-.242-3.253-.125-3.627.074-.237.331-.379.525-.505ZM52.186 57.997c.234.013.453.028.62.216.377.423 2.202 2.92 2.172 3.344-.022.312-.257.456-.48.64l-.052.004c-.192.005-.366-.003-.509-.148-.333-.341-2.016-2.743-2.202-3.177a.496.496 0 0 1-.042-.31c.048-.272.288-.418.493-.569ZM61.52 55.922c.104.705.327 1.424.482 2.122l.913 4.249q1.373 6.457 2.52 12.957c.475.107.883.288 1.245.622.502.463.799 1.19.795 1.87-.003.652-.299 1.236-.772 1.675a2.533 2.533 0 0 1-1.857.695 2.418 2.418 0 0 1-1.725-.835c-.45-.534-.601-1.17-.547-1.852-.657-.793-1.494-1.504-2.236-2.22l-4.01-3.85q-1.325-1.318-2.668-2.616c-.55-.54-1.142-1.073-1.625-1.673 1.126.878 11.24 8.573 11.405 8.612.09.022.115-.028.183-.078.069-.183.079-.328.07-.522-.02-.466-.122-.947-.177-1.411q-.2-1.702-.416-3.401-.675-5.108-1.228-10.231c-.13-1.27-.393-2.789-.355-4.04 0-.025.002-.049.003-.073Z"/>
    <path fill="#FEFEFE"
          d="M64.509 75.639c.408-.045.796-.039 1.187.103q.094.034.184.077t.175.095q.085.052.165.113.079.06.151.129.073.068.138.144.065.076.121.158.057.082.105.17.048.087.087.18l.04.1.035.104.029.105q.013.052.024.106.01.053.018.107.008.054.013.109.005.054.007.108.002.055.001.11 0 .054-.004.108-.004.055-.01.109t-.016.108l-.02.106-.027.106q-.015.052-.033.104-.017.052-.037.102-.02.051-.043.1c-.28.606-.757.918-1.357 1.146-.387.06-.763.042-1.132-.097q-.052-.02-.102-.042l-.1-.048q-.049-.025-.096-.052l-.094-.057q-.047-.03-.091-.063-.045-.032-.088-.067-.043-.034-.084-.07l-.08-.077q-.039-.038-.076-.08-.037-.04-.072-.083-.035-.042-.067-.087-.033-.044-.063-.09l-.058-.094q-.028-.048-.053-.097-.025-.049-.048-.099t-.042-.102q-.038-.093-.065-.19-.028-.096-.045-.194-.017-.1-.025-.2-.007-.1-.003-.2.003-.1.016-.199.014-.1.038-.197.023-.097.057-.192.034-.094.077-.185c.28-.595.764-.92 1.363-1.145Z"/>
    <path fill="#182D40"
          d="M62.791 52.151c2.002-.26 4.978.086 6.94.539q.296.066.59.14.294.074.586.155.292.082.583.17.29.089.577.184.288.096.573.199.286.103.568.213.283.11.563.226.28.117.556.241.277.124.55.255.275.13.545.268.27.137.537.281.267.145.53.295.263.151.522.308.26.158.515.321.255.164.506.334t.498.346q.247.176.49.358.242.183.48.371.237.188.47.383.233.194.461.394t.451.405q.223.205.441.416t.43.428q.213.216.42.438.207.221.409.448.201.226.397.458.196.231.386.468.19.236.374.477.183.241.361.487t.35.496q.172.25.337.504.166.254.325.512c2.766 4.431 4.032 10.036 3.68 15.23-.124 1.81-.482 3.588-.89 5.352l-1.916-.003q.233-.737.416-1.488.184-.75.317-1.511.135-.761.218-1.53.084-.768.117-1.54c.258-6.513-1.954-12.664-6.393-17.452-3.851-4.153-9.534-6.709-15.19-6.929q-.845-.058-1.69-.052-.847.006-1.691.075-.844.07-1.68.202t-1.66.327q-.278.067-.555.141-.276.074-.551.155-.275.08-.548.167-.273.088-.543.182-.271.094-.54.194-.268.1-.533.207-.266.107-.53.22-.263.113-.523.233-.26.12-.517.245-.258.126-.512.258-.254.133-.505.27-.251.139-.499.283-.247.144-.491.295-.244.15-.484.306t-.477.318q-.236.162-.468.33-.233.167-.461.34-.228.173-.452.351-.224.179-.444.363t-.435.373q-.215.19-.425.384t-.416.393q-.206.2-.407.404-.2.205-.396.414t-.386.423q-.191.214-.377.432-.185.218-.365.441t-.354.45q-.175.227-.344.459-.17.23-.333.466-.163.235-.32.475-.158.239-.31.482c-2.849 4.66-3.877 10.28-3.193 15.674.164 1.297.456 2.55.763 3.82q-.861-.006-1.723.016a27.748 27.748 0 0 1-.837-5c-.49-6.915 1.58-13.495 6.136-18.746q.162-.187.328-.37.166-.184.336-.364t.343-.356q.172-.177.35-.35.176-.173.356-.342.18-.17.363-.336.184-.166.37-.328.187-.162.377-.32t.383-.313q.193-.154.39-.305.196-.15.395-.297t.4-.29q.203-.142.408-.28.204-.139.412-.273.208-.135.418-.265t.423-.256q.213-.126.428-.248.215-.121.433-.239.218-.117.438-.23.22-.112.442-.221.222-.108.447-.212.224-.104.45-.204.227-.1.455-.194.228-.095.459-.185.23-.09.462-.176t.465-.167q.234-.08.47-.157.235-.076.471-.148.237-.071.475-.138.238-.067.478-.128.239-.063.48-.12.24-.057.482-.109c1.324-.278 2.662-.402 4.01-.496Z"/>
</svg>