<svg width="86" height="66" viewBox="0 0 86 66" fill="none" xmlns="http://www.w3.org/2000/svg">
<path d="M24.1873 57.3824C25.0395 57.3903 27.0056 57.2365 27.7188 57.4313C27.7898 57.5968 27.7685 57.7073 27.7578 57.8821C27.4798 58.0523 26.5956 57.9468 26.2361 57.9471C26.2268 58.8289 26.2383 59.7119 26.2395 60.5937C26.2379 60.9996 26.3706 61.7753 26.1171 62.0879C25.9534 62.1399 25.918 62.1475 25.7505 62.1144C25.4843 61.7849 25.624 58.6261 25.6248 57.9557C25.17 57.9462 24.695 58.0781 24.271 57.8864C24.1586 57.7125 24.1888 57.5865 24.1873 57.3824Z" fill="#1976D2"/>
<path d="M12.6936 57.3321C13.2966 57.3071 13.7436 57.5344 14.2355 57.8456C14.1044 58.0056 13.9853 58.1482 13.8205 58.2742C13.5765 58.1284 13.2874 57.954 13.004 57.9088C12.7303 57.8651 12.3499 57.9464 12.1401 58.1345C11.9926 58.2669 11.8798 58.5151 11.8965 58.713C11.9523 59.3697 13.5718 59.666 14.0545 60.087C14.2466 60.2546 14.3903 60.4704 14.4006 60.7315C14.4143 61.0751 14.1721 61.5875 13.9339 61.827C13.559 62.2039 12.9299 62.189 12.4373 62.1925C11.8841 62.0925 11.5154 61.9056 11.0551 61.5906C11.137 61.5144 11.4403 61.197 11.562 61.2125C11.9514 61.2621 12.3656 61.802 13.1141 61.679C13.3161 61.6459 13.4743 61.5366 13.5825 61.3653C13.7005 61.1783 13.779 60.9161 13.7008 60.6995C13.4906 60.117 12.3348 59.9721 11.8254 59.6875C11.5639 59.5413 11.3863 59.3281 11.315 59.0344C11.2281 58.6766 11.2899 58.2738 11.4906 57.9639C11.7653 57.54 12.2238 57.417 12.6936 57.3321Z" fill="#1976D2"/>
<path d="M55.3937 57.258L56.6029 57.2521C56.6297 58.9244 56.6181 60.599 56.6235 62.2716L55.3805 62.27L55.3937 57.258Z" fill="#1976D2"/>
<path d="M19.9342 57.3974C20.1189 57.3935 20.2714 57.3939 20.4518 57.4449C20.7076 57.8439 20.515 59.5446 20.5168 60.0893C20.518 60.518 20.571 61.0258 20.9081 61.3319C21.1815 61.5801 21.5886 61.6375 21.9441 61.6094C23.9249 61.4525 22.5195 58.2359 23.2264 57.39C23.3926 57.3246 23.3938 57.3259 23.5648 57.3785C23.6983 57.5366 23.6731 57.5951 23.6806 57.7969C23.685 58.8941 23.9418 60.9221 23.1143 61.7341C22.7518 62.09 22.2477 62.1913 21.7557 62.1894C21.2674 62.1876 20.7726 62.0784 20.4219 61.7155C19.6231 60.8891 19.9162 58.5223 19.9342 57.3974Z" fill="#1976D2"/>
<path d="M18.2444 59.4974C18.251 59.0114 18.1902 58.5187 18.217 58.036C18.2309 57.7849 18.2632 57.6077 18.4572 57.4349C18.6057 57.399 18.6267 57.3812 18.7654 57.439C19.0124 57.9006 18.875 61.3905 18.8763 62.1307C18.6654 62.1369 18.4757 62.1407 18.2686 62.0979C18.1582 61.4641 18.2269 60.6966 18.2238 60.0471L15.6929 60.0484C15.6872 60.4406 15.8034 61.5747 15.6761 61.8679C15.6149 62.009 15.5282 62.1242 15.3825 62.1824C15.2891 62.2196 15.2697 62.1871 15.1844 62.1514C15.0967 62.0456 15.0763 61.9454 15.0665 61.8114C15.0395 61.4429 15.0926 61.0561 15.0914 60.6849L15.0747 57.4335C15.2712 57.4323 15.4677 57.4328 15.6641 57.435C15.7981 57.8865 15.6894 58.9826 15.6854 59.498L18.2444 59.4974Z" fill="#1976D2"/>
<path d="M44.2747 57.3796C44.3954 57.3753 44.5436 57.356 44.6619 57.375C44.9811 57.4266 47.0176 60.5859 47.3161 61.0399C47.3231 60.437 47.3388 59.8315 47.3258 59.2289C47.316 58.7725 47.2329 58.2794 47.2939 57.8264C47.3156 57.6651 47.3647 57.5651 47.4656 57.4353C47.6185 57.3681 47.6495 57.356 47.8141 57.3729C48.0396 57.7651 47.9282 61.4335 47.931 62.1141C47.8001 62.1405 47.6937 62.1629 47.5602 62.1441C47.1675 62.089 45.2876 59.0883 44.885 58.5644C44.8831 59.2175 45.0123 61.7224 44.7941 62.1044C44.6365 62.149 44.5092 62.1315 44.3502 62.1131C44.1715 61.7458 44.273 58.0988 44.2747 57.3796Z" fill="#1976D2"/>
<path d="M25.5271 20.4837C25.8029 20.7682 26.0309 21.1428 26.2749 21.4593C26.585 21.8615 26.9208 22.2404 27.2591 22.6189C26.484 23.3115 25.5414 23.892 24.718 24.5409L24.6654 24.5465C24.3003 24.3976 23.314 22.9291 23.053 22.5399C23.7981 21.8073 24.699 21.1214 25.5271 20.4837Z" fill="#1976D2"/>
<path d="M60.3289 20.561C61.2757 21.0263 62.2006 21.8178 63.0604 22.4345C62.5142 23.1783 61.9955 23.9258 61.4987 24.7034L61.4514 24.7279C61.0593 24.5804 59.3514 23.1184 58.8848 22.758C59.3624 22.0233 59.8552 21.299 60.3289 20.561Z" fill="#1976D2"/>
<path d="M50.2312 57.2516L54.6231 57.2349L54.6215 58.1941L53.0523 58.1951L53.065 60.7188L53.068 62.2872L51.8644 62.2869L51.8656 58.2355C51.3221 58.2404 50.7787 58.2361 50.2354 58.2225L50.2312 57.2516Z" fill="#1976D2"/>
<path d="M39.2589 61.0928C39.7183 59.9094 39.9563 58.6489 40.3765 57.4531C40.5135 57.3506 40.5868 57.3741 40.7514 57.367C41.1475 57.689 41.7594 60.537 41.9373 61.2119C42.0774 60.7073 42.7844 57.68 43.0131 57.4551C43.0954 57.3743 43.3299 57.3679 43.4378 57.3843C43.5538 57.402 43.5155 57.3908 43.5899 57.4914L43.4068 58.1095C42.9828 59.329 42.7225 60.8584 42.2186 62.0006C42.0639 62.1304 41.9286 62.0939 41.7304 62.0999C41.4638 61.9119 40.786 58.9926 40.6206 58.4685C40.342 59.2211 40.1314 60.0064 39.9149 60.7786C39.7961 61.2028 39.7161 61.6906 39.5094 62.0776C39.3169 62.12 39.2053 62.1135 39.011 62.0788C38.8726 61.8973 37.669 57.9358 37.5161 57.3925C37.717 57.3795 37.9005 57.3773 38.1008 57.3989C38.4504 57.6523 39.0879 60.4686 39.2589 61.0928Z" fill="#1976D2"/>
<path d="M64.7402 57.2235L68.5273 57.2261L68.5229 58.2059L65.9636 58.2053L65.9531 59.2343L68.26 59.2426L68.2633 60.2061L66.0825 60.2076L66.0371 60.2455C65.9355 60.5599 65.9902 60.9803 65.9942 61.3111L68.6224 61.313L68.6214 62.2734L64.7439 62.2746L64.7402 57.2235Z" fill="#1976D2"/>
<path d="M28.3835 57.3905C29.3194 57.3791 30.5324 57.2357 31.325 57.8152C31.8158 58.1741 32.0985 58.7535 32.1735 59.3484C32.2776 60.1745 32.0141 60.8784 31.5051 61.5139C30.5581 62.2701 29.5173 62.1271 28.376 62.1175L28.3835 57.3905Z" fill="#1976D2"/>
<path d="M29.0019 57.9461C29.6165 57.9385 30.3432 57.8691 30.8716 58.2404C31.265 58.5169 31.4715 58.9973 31.5324 59.4618C31.6129 60.0761 31.4597 60.6054 31.087 61.0931C31.0736 61.106 31.0606 61.1195 31.0469 61.132C30.4377 61.6798 29.7544 61.5804 28.9977 61.562L29.0019 57.9461Z" fill="white"/>
<path d="M34.8356 57.3276C35.2739 57.2942 35.7379 57.382 36.1223 57.5996C36.6541 57.9006 37.002 58.4291 37.1488 59.0149C37.3235 59.7119 37.2305 60.5067 36.8575 61.1254C36.486 61.7415 35.961 62.0299 35.2853 62.2009C34.7044 62.2036 34.2191 62.157 33.717 61.8242C33.1986 61.4806 32.8745 60.9454 32.7553 60.3401C32.6164 59.6349 32.7395 58.8532 33.1651 58.2642C33.5881 57.679 34.1521 57.4501 34.8356 57.3276Z" fill="#1976D2"/>
<path d="M34.9255 57.8924C35.2156 57.8954 35.4902 57.9186 35.7486 58.0636C36.1351 58.2805 36.39 58.6681 36.5012 59.0907C36.6506 59.6579 36.6105 60.3221 36.3095 60.8349C36.0216 61.3252 35.6679 61.5104 35.1305 61.6425C34.7892 61.6315 34.4604 61.5826 34.1627 61.4045C33.757 61.1616 33.4925 60.7629 33.401 60.3011C33.2874 59.7286 33.3799 59.0637 33.7219 58.581C34.0331 58.1416 34.4065 57.9729 34.9255 57.8924Z" fill="white"/>
<path d="M69.5283 57.1996C70.446 57.19 71.4904 57.0806 72.3829 57.2978C72.8651 57.4151 73.3226 57.6616 73.5751 58.1042C73.8291 58.5495 73.8511 59.18 73.7071 59.6641C73.5613 60.1545 73.2411 60.3791 72.8115 60.6074C73.0618 60.9983 73.7676 61.8138 73.777 62.2506L73.5781 62.2708L72.6148 62.2775L71.7019 60.9351L70.7431 60.9427L70.7416 62.3019L69.5305 62.2897C69.4711 60.5992 69.5184 58.8916 69.5283 57.1996Z" fill="#1976D2"/>
<path d="M70.7606 58.1896C71.2998 58.179 71.906 58.1068 72.3776 58.4298C72.5412 58.5419 72.6357 58.6933 72.6541 58.8939C72.6792 59.1689 72.4968 59.5049 72.3271 59.7085C71.8153 59.9805 71.323 59.9404 70.7604 59.9363L70.7606 58.1896Z" fill="white"/>
<path d="M57.9382 57.2474C58.2875 57.2364 58.6385 57.2386 58.988 57.2349C59.6092 58.1895 60.132 59.2124 60.6765 60.2121C61.2214 59.2101 61.7671 58.2066 62.3922 57.2517L63.4832 57.2494C63.5059 58.9282 63.483 60.61 63.4804 62.2891L62.3465 62.2914L62.333 61.4214C62.3287 60.727 62.3317 60.0328 62.3417 59.3386C62.0474 59.8227 61.3151 61.3704 60.9107 61.6621C60.7604 61.7705 60.7289 61.7625 60.5579 61.7355C59.9785 61.3357 59.4684 60.0886 59.067 59.4652L59.071 62.2971L57.9641 62.2842C57.9449 60.6052 57.9362 58.9263 57.9382 57.2474Z" fill="#1976D2"/>
<path d="M23.9416 17.1965C24.1249 17.1708 24.3034 17.1519 24.4874 17.1838C25.243 17.3146 25.8155 18.4545 26.2047 19.0426C26.2025 19.0495 26.2 19.0564 26.1979 19.0633C26.1266 19.2871 26.0626 19.4971 25.9074 19.6785C25.3885 20.2844 24.6496 20.7518 24.0351 21.2576C23.398 21.7821 22.8017 22.3886 22.1105 22.8385C21.9502 22.8783 21.8029 22.9046 21.6367 22.8904C21.3296 22.864 21.0891 22.7308 20.8949 22.4924C20.6316 22.1693 19.8901 21.3028 19.9527 20.8709C19.9944 20.5846 20.2614 20.277 20.4529 20.0763C20.8412 19.669 21.3389 19.3248 21.771 18.9629C22.4715 18.3761 23.1742 17.6896 23.9416 17.1965Z" fill="#1976D2"/>
<path d="M61.0906 16.9361C61.2304 16.9453 61.3494 16.9619 61.4795 17.0173C62.0366 17.254 65.7392 19.9581 65.8807 20.4146C65.9585 20.6655 65.8882 20.9291 65.7804 21.1598C65.497 21.7645 64.9212 22.4883 64.2839 22.7091C63.884 22.6146 59.6354 19.5874 59.4731 19.2105C59.4127 19.0701 59.4634 18.8676 59.5169 18.7314C59.7762 18.0718 60.4457 17.2231 61.0906 16.9361Z" fill="#1976D2"/>
<path d="M39.3567 9.25187C40.4241 9.19162 41.5119 9.23575 42.5816 9.23925C43.7265 9.24287 44.859 9.21 46.0025 9.18262C46.2976 9.1755 46.5591 9.21062 46.774 9.43325C46.9802 9.647 47.0154 10.0402 47.0167 10.3212C47.019 10.7596 47.1152 11.6779 46.8025 11.997C45.8226 12.0001 39.5034 12.1294 39.1561 11.9085C39.0757 11.7604 39.0462 11.6306 39.0339 11.462C38.9871 10.826 38.9291 9.7585 39.3567 9.25187Z" fill="#1976D2"/>
<path d="M40.4175 12.428C42.1084 12.3776 43.8141 12.4276 45.5066 12.4321L45.5216 16.0986C45.5249 16.687 45.616 17.4239 45.4861 17.9951C45.0675 17.9406 44.6477 17.8984 44.2266 17.8685C43.8055 17.8385 43.3839 17.8209 42.9617 17.8156C42.5397 17.8104 42.1177 17.8175 41.696 17.837C41.2743 17.8565 40.8536 17.8883 40.4337 17.9324L40.4175 12.428Z" fill="#1976D2"/>
<path d="M42.0497 0.711881C42.1807 0.699464 42.3118 0.689839 42.4431 0.683006C42.5745 0.676172 42.706 0.672171 42.8375 0.671005C42.969 0.669838 43.1005 0.671463 43.232 0.67588C43.3634 0.680297 43.4947 0.687505 43.6259 0.697505C43.757 0.707505 43.8879 0.720339 44.0185 0.736005C44.1491 0.751589 44.2793 0.769963 44.4091 0.79113C44.5389 0.812296 44.6682 0.836256 44.797 0.863006C44.9257 0.889673 45.0539 0.919089 45.1815 0.951255C45.309 0.983505 45.4357 1.01842 45.5617 1.056C45.6878 1.09359 45.813 1.13384 45.9374 1.17676C46.0617 1.21967 46.185 1.26525 46.3074 1.3135C46.4298 1.36167 46.5511 1.41246 46.6712 1.46588C46.7914 1.5193 46.9104 1.57521 47.0282 1.63363C47.1461 1.69213 47.2626 1.75309 47.3777 1.81651C47.493 1.88001 47.6068 1.94592 47.7192 2.01426C47.8316 2.08251 47.9424 2.15317 48.0519 2.22625C48.1738 2.30842 48.2936 2.39355 48.4114 2.48163C48.5291 2.56971 48.6446 2.66059 48.7579 2.75425C48.8712 2.848 48.9822 2.94446 49.0907 3.04363C49.1993 3.14271 49.3054 3.24446 49.4089 3.34888C49.5125 3.45321 49.6135 3.56001 49.7119 3.66926C49.8102 3.77859 49.9058 3.89025 49.9986 4.00425C50.0915 4.11825 50.1816 4.23442 50.2687 4.35275C50.3559 4.47117 50.4401 4.59163 50.5214 4.71413C50.6027 4.83672 50.681 4.96117 50.7561 5.08751C50.8313 5.21384 50.9033 5.34196 50.9722 5.47188C51.0412 5.60171 51.1068 5.73321 51.1692 5.86638C51.2317 5.99946 51.2909 6.13401 51.3467 6.27001C51.4027 6.40601 51.4552 6.5433 51.5042 6.68188C51.5534 6.82046 51.5991 6.96017 51.6414 7.10101C51.6837 7.24176 51.7225 7.3835 51.7579 7.52625C51.7932 7.669 51.825 7.8125 51.8534 7.95675C51.8818 8.10392 51.9066 8.25167 51.9277 8.40001C51.9488 8.54834 51.9663 8.69713 51.9801 8.84638C51.9939 8.99563 52.004 9.14513 52.0104 9.29488C52.0168 9.44455 52.0195 9.59434 52.0185 9.74426C52.0176 9.89409 52.0129 10.0438 52.0045 10.1934C51.9962 10.343 51.9842 10.4924 51.9685 10.6414C51.9527 10.7905 51.9333 10.939 51.9102 11.0871C51.8872 11.2352 51.8606 11.3826 51.8302 11.5294C51.7999 11.6761 51.766 11.822 51.7285 11.9671C51.691 12.1122 51.6499 12.2563 51.6052 12.3994C51.5607 12.5425 51.5125 12.6843 51.4609 12.825C51.4093 12.9657 51.3542 13.105 51.2957 13.243C51.2372 13.3809 51.1754 13.5174 51.1101 13.6524C51.0449 13.7873 50.9765 13.9205 50.9046 14.052C50.8328 14.1836 50.7578 14.3133 50.6796 14.4411C50.6015 14.569 50.5202 14.6948 50.4357 14.8186C49.4071 16.3303 47.7646 17.7426 45.9245 18.0851L45.9095 16.9043C46.693 16.5776 47.4137 16.1959 48.069 15.6501C48.1656 15.5709 48.2601 15.4893 48.3526 15.4053C48.4452 15.3213 48.5356 15.235 48.6237 15.1465C48.712 15.0581 48.798 14.9675 48.8817 14.8746C48.9654 14.7819 49.0467 14.6871 49.1257 14.5904C49.2047 14.4935 49.2813 14.3948 49.3554 14.2941C49.4295 14.1935 49.501 14.0912 49.57 13.987C49.639 13.8828 49.7054 13.777 49.7691 13.6695C49.8329 13.562 49.8939 13.453 49.9521 13.3425C50.0105 13.232 50.0659 13.1201 50.1186 13.0068C50.1714 12.8935 50.2212 12.779 50.2682 12.6633C50.3153 12.5474 50.3595 12.4305 50.4006 12.3126C50.4419 12.1946 50.4801 12.0757 50.5154 11.9559C50.5507 11.836 50.583 11.7153 50.6122 11.5939C50.6416 11.4724 50.6678 11.3503 50.691 11.2275C50.7142 11.1047 50.7344 10.9814 50.7514 10.8576C50.7684 10.7339 50.7824 10.6098 50.7934 10.4853C50.9766 8.40713 50.395 6.21788 49.0322 4.61226C48.9503 4.51767 48.8662 4.42513 48.78 4.33463C48.6937 4.24413 48.6052 4.15571 48.5147 4.06938C48.4242 3.98313 48.3317 3.89905 48.2371 3.81713C48.1426 3.73521 48.0462 3.65563 47.9479 3.57838C47.8495 3.50105 47.7494 3.42613 47.6475 3.35363C47.5456 3.28113 47.442 3.21113 47.3367 3.14363C47.2315 3.07605 47.1247 3.01101 47.0162 2.94851C46.9079 2.88609 46.7981 2.82626 46.6869 2.76901C46.5757 2.71184 46.4632 2.6573 46.3494 2.60538C46.2355 2.55355 46.1205 2.50446 46.0044 2.45813C45.8882 2.4118 45.771 2.36825 45.6527 2.3275C45.5345 2.28675 45.4154 2.24884 45.2954 2.21375C45.1753 2.17867 45.0545 2.14646 44.9329 2.11713C44.8113 2.08788 44.6891 2.0615 44.5662 2.038C44.4433 2.01459 44.3199 1.99409 44.1961 1.97651C44.0723 1.95892 43.9481 1.9443 43.8236 1.93263C42.5757 1.83038 41.3052 1.93663 40.1225 2.3685C38.2127 3.06575 36.6289 4.59813 35.7802 6.43513C35.726 6.5533 35.6747 6.67275 35.6264 6.7935C35.578 6.91425 35.5327 7.03609 35.4904 7.15901C35.448 7.28201 35.4087 7.40596 35.3725 7.53088C35.3362 7.65571 35.3031 7.78142 35.2731 7.90801C35.2431 8.03451 35.2162 8.16171 35.1925 8.28963C35.1687 8.41746 35.1482 8.5458 35.1307 8.67463C35.1133 8.80355 35.0991 8.9328 35.0881 9.06238C35.077 9.19196 35.0692 9.32171 35.0645 9.45163C35.0599 9.58163 35.0585 9.71163 35.0602 9.84163C35.062 9.97171 35.067 10.1016 35.0752 10.2314C35.0834 10.3611 35.0948 10.4906 35.1094 10.6199C35.1239 10.7491 35.1416 10.8779 35.1626 11.0063C35.1835 11.1346 35.2076 11.2623 35.2347 11.3895C35.262 11.5167 35.2924 11.6431 35.3259 11.7688C35.3593 11.8944 35.3958 12.0192 35.4355 12.1431C35.4751 12.267 35.5177 12.3898 35.5634 12.5115C36.4121 14.739 37.9671 16.07 40.0984 17.0274C40.0732 17.3648 40.0715 17.7074 40.0597 18.0458C39.0422 17.8828 38.1479 17.4494 37.3296 16.831C35.5117 15.457 34.234 13.385 33.9329 11.1165C33.9117 10.9668 33.8942 10.8165 33.8804 10.6659C33.8666 10.5152 33.8566 10.3643 33.8502 10.2131C33.8439 10.062 33.8413 9.91084 33.8424 9.7595C33.8435 9.60825 33.8483 9.45713 33.8569 9.30613C33.8655 9.15505 33.8777 9.0043 33.8937 8.85388C33.9097 8.70346 33.9294 8.55355 33.9527 8.40413C33.9762 8.25463 34.0032 8.10584 34.034 7.95775C34.0647 7.80959 34.0991 7.6623 34.137 7.51588C34.175 7.36947 34.2166 7.22405 34.2617 7.07963C34.3069 6.9353 34.3556 6.79213 34.4079 6.65013C34.46 6.50813 34.5157 6.3675 34.5749 6.22825C34.634 6.08909 34.6966 5.95142 34.7625 5.81526C34.8285 5.67909 34.8978 5.54463 34.9704 5.41188C35.0429 5.27922 35.1187 5.14838 35.1977 5.01938C35.2767 4.89038 35.3589 4.76338 35.4441 4.63838C35.5295 4.51346 35.6178 4.39071 35.7091 4.27013C37.2745 2.22838 39.5191 1.03426 42.0497 0.711881Z" fill="#1976D2"/>
<path d="M0.874498 64.5125C4.13812 64.4691 7.4095 64.5401 10.6744 64.5383L31.8855 64.5088L85.207 64.5238L85.1979 65.507L0.865997 65.4506L0.874498 64.5125Z" fill="#1976D2"/>
<path d="M41.3241 18.2854C43.7227 18.0986 46.2604 18.3051 48.6177 18.7718C48.8352 18.817 49.052 18.8649 49.2684 18.9154C49.4846 18.9659 49.7002 19.019 49.9151 19.0748C50.1301 19.1305 50.3444 19.1889 50.558 19.2499C50.7715 19.3109 50.9842 19.3745 51.1962 19.4406C51.4082 19.5069 51.6194 19.5757 51.8297 19.647C52.0401 19.7183 52.2495 19.7922 52.458 19.8686C52.6666 19.9451 52.8742 20.0241 53.0807 20.1056C53.2873 20.1871 53.4929 20.2711 53.6974 20.3576C53.9019 20.4442 54.1054 20.5333 54.3077 20.6248C54.5102 20.7163 54.7114 20.8102 54.9114 20.9065C55.1115 21.0029 55.3103 21.1018 55.508 21.203C55.7057 21.3043 55.9021 21.4079 56.0972 21.514C56.2924 21.6201 56.4862 21.7285 56.6786 21.8393C56.8711 21.95 57.0622 22.0631 57.252 22.1786C57.4417 22.294 57.63 22.4118 57.8169 22.5318C58.0037 22.6518 58.1891 22.7741 58.373 22.8986C58.5568 23.0232 58.7392 23.15 58.92 23.279C59.1007 23.408 59.2799 23.5392 59.4575 23.6726C59.6351 23.806 59.811 23.9415 59.9852 24.0791C60.1595 24.2169 60.3321 24.3567 60.503 24.4985C60.6738 24.6404 60.8429 24.7844 61.0102 24.9304C61.1776 25.0764 61.3431 25.2244 61.5069 25.3745C61.6706 25.5245 61.8325 25.6765 61.9925 25.8305C62.1526 25.9845 62.3107 26.1404 62.4669 26.2983C62.6231 26.4562 62.7774 26.6159 62.9297 26.7775C63.0821 26.9391 63.2324 27.1025 63.3807 27.2679C63.5291 27.4331 63.6754 27.6002 63.8196 27.7691C63.9639 27.938 64.106 28.1085 64.2461 28.2809C64.3863 28.4532 64.5243 28.6272 64.6601 28.8029C64.796 28.9785 64.9296 29.1559 65.0611 29.3349C65.1927 29.5138 65.322 29.6943 65.4491 29.8765C65.5762 30.0586 65.7011 30.2422 65.8237 30.4274C65.9378 30.5983 66.05 30.7704 66.1604 30.9438C66.2707 31.117 66.3791 31.2915 66.4856 31.4673C66.5922 31.6429 66.6968 31.8197 66.7995 31.9976C66.9022 32.1756 67.003 32.3547 67.1017 32.5348C67.2006 32.7149 67.2974 32.8961 67.3924 33.0784C67.4872 33.2606 67.5801 33.4439 67.671 33.6281C67.7619 33.8124 67.8508 33.9976 67.9376 34.1839C68.0245 34.37 68.1094 34.5572 68.1921 34.7453C68.2749 34.9333 68.3557 35.1221 68.4344 35.3119C68.5131 35.5017 68.5897 35.6923 68.6642 35.8838C68.7388 36.0753 68.8113 36.2675 68.8817 36.4605C68.9521 36.6536 69.0203 36.8474 69.0865 37.0419C69.1527 37.2364 69.2167 37.4316 69.2787 37.6275C69.3407 37.8234 69.4004 38.02 69.4581 38.2171C69.5158 38.4144 69.5713 38.6122 69.6246 38.8106C69.678 39.009 69.7292 39.208 69.7782 39.4075C69.8272 39.607 69.8741 39.807 69.9189 40.0076C69.9635 40.2081 70.006 40.4091 70.0464 40.6106C70.0867 40.8121 70.1248 41.014 70.1607 41.2163C70.1967 41.4186 70.2305 41.6213 70.262 41.8243C70.2936 42.0273 70.3229 42.2306 70.35 42.4343C70.3772 42.6379 70.4021 42.8419 70.4247 43.0461C70.4474 43.2503 70.4679 43.4547 70.4861 43.6594C70.5044 43.864 70.5204 44.0689 70.5342 44.2739C70.5481 44.4789 70.5597 44.684 70.569 44.8893C70.5783 45.0945 70.5854 45.2998 70.5902 45.5053C70.5952 45.7107 70.5978 45.9161 70.5982 46.1215C70.5987 46.327 70.5969 46.5325 70.5929 46.7379C70.5888 46.9433 70.5825 47.1486 70.574 47.3539C70.5655 47.5592 70.5548 47.7644 70.5419 47.9694C70.5289 48.1745 70.5137 48.3794 70.4962 48.5841C70.4788 48.7888 70.4592 48.9933 70.4374 49.1976C70.3014 50.5543 70.0122 51.8941 69.7467 53.2301L85.2887 53.242L85.2809 54.1716L44.7344 54.1465L0.857117 54.175L0.860493 53.2906L16.1276 53.2769C15.7819 51.4645 15.4201 49.6529 15.3259 47.8059C15.3135 47.573 15.3039 47.34 15.2972 47.1069C15.2906 46.8737 15.2868 46.6405 15.2859 46.4074C15.2849 46.1741 15.2867 45.9409 15.2915 45.7078C15.2963 45.4746 15.304 45.2415 15.3145 45.0085C15.325 44.7755 15.3383 44.5427 15.3545 44.31C15.3707 44.0774 15.3898 43.845 15.4117 43.6128C15.4337 43.3806 15.4584 43.1487 15.486 42.9171C15.5136 42.6855 15.544 42.4543 15.5774 42.2235C15.6106 41.9927 15.6467 41.7623 15.6857 41.5324C15.7247 41.3025 15.7664 41.073 15.811 40.8441C15.8556 40.6152 15.903 40.3869 15.9531 40.1591C16.0033 39.9313 16.0563 39.7042 16.1121 39.4778C16.1679 39.2513 16.2264 39.0255 16.2876 38.8005C16.349 38.5755 16.413 38.3513 16.4799 38.1279C16.5466 37.9044 16.6162 37.6818 16.6885 37.4601C16.7607 37.2384 16.8357 37.0175 16.9134 36.7976C16.9911 36.5777 17.0715 36.3588 17.1545 36.1409C17.2376 35.923 17.3233 35.7061 17.4117 35.4903C17.5002 35.2744 17.5912 35.0597 17.6849 34.8461C17.7785 34.6325 17.8748 34.4202 17.9736 34.209C18.0725 33.9978 18.174 33.7878 18.278 33.579C18.3821 33.3703 18.4887 33.1629 18.5977 32.9568C18.7069 32.7507 18.8186 32.5459 18.9327 32.3425C19.0469 32.1392 19.1635 31.9373 19.2826 31.7368C19.4017 31.5363 19.5232 31.3373 19.6472 31.1398C19.7712 30.9422 19.8977 30.7462 20.0265 30.5518C20.1553 30.3573 20.2865 30.1645 20.42 29.9734C20.5536 29.7821 20.6895 29.5926 20.8276 29.4048C20.9658 29.2169 21.1063 29.0308 21.2491 28.8464C21.3919 28.662 21.5369 28.4793 21.6841 28.2985C21.8314 28.1176 21.9808 27.9385 22.1325 27.7614C22.2842 27.5842 22.438 27.4089 22.5939 27.2355C27.3335 22.0133 34.27 18.6291 41.3241 18.2854Z" fill="#1976D2"/>
<path d="M61.6556 34.6916C61.7689 34.6941 61.8859 34.6954 61.9978 34.7144C62.2186 34.7519 62.4309 34.8781 62.5341 35.0825C62.5988 35.2104 62.5994 35.3301 62.5548 35.464C62.333 36.1306 60.58 37.1102 59.9515 37.4535C59.6605 37.453 59.3945 37.4522 59.1781 37.2302C59.0495 37.0982 58.9458 36.9154 58.9781 36.7262C59.0871 36.09 61.0641 35.0306 61.6556 34.6916Z" fill="white"/>
<path d="M24.0634 34.6795C24.7327 34.6715 26.7161 35.8044 27.2489 36.2405C27.406 36.3691 27.5137 36.496 27.5132 36.7129C27.5126 37.0207 27.3087 37.2702 27.0902 37.4631C27.0389 37.4626 26.9875 37.4632 26.9361 37.4612C26.3993 37.4401 24.0921 36.1852 23.7386 35.7675C23.726 35.7526 23.7142 35.737 23.7033 35.7207C23.6923 35.7046 23.6823 35.6878 23.6732 35.6705C23.6642 35.6532 23.656 35.6354 23.6489 35.6171C23.6418 35.5989 23.6357 35.5803 23.6306 35.5615C23.6255 35.5426 23.6215 35.5234 23.6186 35.5041C23.6156 35.4848 23.6137 35.4653 23.6129 35.4457C23.6121 35.4262 23.6124 35.4066 23.6138 35.3871C23.6151 35.3676 23.6175 35.3482 23.621 35.329C23.6694 35.0575 23.865 34.8535 24.0634 34.6795Z" fill="white"/>
<path d="M21.2771 45.073C22.1822 45.06 23.1011 45.0151 24.0051 45.0462C24.3294 45.0574 24.7495 45.1017 24.9619 45.3837C25.0515 45.5027 25.0666 45.6295 25.053 45.7735C25.0211 46.1109 24.8784 46.246 24.6266 46.4474C24.119 46.4952 22.1032 46.5596 21.6547 46.4989C21.3842 46.4621 21.1176 46.3285 20.9539 46.1056C20.842 45.9534 20.7965 45.7689 20.8402 45.5821C20.9002 45.3254 21.0596 45.1981 21.2771 45.073Z" fill="white"/>
<path d="M54.0586 27.0547C54.3536 27.0626 54.6765 27.0746 54.8811 27.3218C55.0106 27.4783 55.0233 27.7109 54.9886 27.903C54.8901 28.4514 53.5256 30.5819 53.0676 30.8869C52.8155 30.9258 52.5235 30.9486 52.3144 30.77C52.1591 30.6376 52.1341 30.4538 52.1471 30.2625C52.1919 29.601 53.5431 27.5199 54.0586 27.0547Z" fill="white"/>
<path d="M63.4502 45.1579C63.9161 45.1404 64.7152 45.0415 65.0947 45.3899C65.2271 45.5114 65.2694 45.6043 65.2739 45.7836C65.279 45.9845 65.1626 46.2339 65.0255 46.3769C64.638 46.7814 63.2742 46.616 62.7196 46.6063C62.3012 46.6079 61.4959 46.6919 61.1589 46.397C61.0222 46.2774 60.9697 46.1594 60.957 45.9794C60.9422 45.7703 61.0432 45.47 61.2019 45.3299C61.566 45.0081 62.9345 45.1579 63.4502 45.1579Z" fill="white"/>
<path d="M43.1201 23.8118C43.4422 23.8484 43.6535 23.8759 43.879 24.1263C44.0215 24.5411 44.1214 27.4556 43.9627 27.82C43.8554 28.0664 43.6485 28.1518 43.4209 28.2621C43.3777 28.2591 43.3347 28.2552 43.2917 28.2503C43.0669 28.2239 42.8467 28.1463 42.7196 27.9444C42.5522 27.6784 42.4782 24.691 42.595 24.3174C42.6692 24.0799 42.9264 23.9383 43.1201 23.8118Z" fill="white"/>
<path d="M31.1862 26.9974C31.4202 27.0099 31.6385 27.0248 31.8066 27.2134C32.1832 27.6358 34.008 30.1335 33.9784 30.557C33.9565 30.8692 33.7207 31.0129 33.4972 31.1978C33.4802 31.1988 33.4631 31.2002 33.446 31.2007C33.2536 31.2055 33.0795 31.1984 32.9374 31.0529C32.604 30.7118 30.9207 28.31 30.7349 27.8755C30.6891 27.7686 30.672 27.6825 30.6927 27.5662C30.7411 27.2945 30.9807 27.1483 31.1862 26.9974Z" fill="white"/>
<path d="M40.5196 24.9224C40.6241 25.6266 40.8473 26.3458 41.0021 27.0441L41.915 31.293C42.8304 35.5974 43.6704 39.9165 44.4349 44.2503C44.9104 44.3574 45.3179 44.5376 45.6804 44.872C46.1823 45.3349 46.4789 46.0624 46.4755 46.7421C46.4721 47.3941 46.176 47.9784 45.7025 48.4174C45.1963 48.8865 44.5384 49.1484 43.8456 49.112C43.1845 49.0774 42.55 48.7851 42.121 48.2765C41.6711 47.7433 41.5196 47.107 41.5744 46.425C40.9173 45.6316 40.08 44.9214 39.3375 44.2056L35.3284 40.3549C34.4451 39.4766 33.5557 38.6045 32.6603 37.7386C32.1106 37.1996 31.5176 36.6664 31.0349 36.066C32.1609 36.9439 42.2748 44.6386 42.4399 44.6785C42.5301 44.7003 42.555 44.6495 42.6225 44.5995C42.6915 44.4174 42.702 44.2723 42.6934 44.0776C42.6728 43.6123 42.571 43.1313 42.5158 42.6669C42.3831 41.5324 42.2446 40.3986 42.1004 39.2655C41.65 35.8603 41.2405 32.4501 40.8719 29.035C40.7423 27.7643 40.4794 26.2464 40.5165 24.9943C40.5173 24.9704 40.5186 24.9464 40.5196 24.9224Z" fill="white"/>
<path d="M43.5088 45.6389C43.917 45.5939 44.3051 45.6002 44.6963 45.7424C44.7589 45.7646 44.8202 45.7901 44.8802 45.8187C44.9403 45.8474 44.9987 45.8791 45.0554 45.9139C45.1121 45.9486 45.1669 45.9862 45.2197 46.0266C45.2726 46.067 45.3231 46.1101 45.3714 46.1559C45.4197 46.2015 45.4655 46.2496 45.5089 46.3001C45.5522 46.3506 45.5928 46.4032 45.6305 46.458C45.6683 46.5127 45.7033 46.5692 45.7353 46.6276C45.7672 46.686 45.796 46.7458 45.8216 46.8071C45.8359 46.8405 45.8492 46.8743 45.8617 46.9085C45.8742 46.9426 45.8857 46.977 45.8965 47.0117C45.9072 47.0464 45.9169 47.0814 45.9258 47.1166C45.9347 47.1519 45.9426 47.1873 45.9496 47.223C45.9566 47.2587 45.9627 47.2945 45.9679 47.3304C45.9731 47.3664 45.9774 47.4024 45.9806 47.4386C45.984 47.4748 45.9863 47.511 45.9876 47.5474C45.989 47.5836 45.9895 47.6199 45.9891 47.6562C45.9886 47.6926 45.9872 47.7289 45.9849 47.7651C45.9825 47.8014 45.9791 47.8375 45.9749 47.8736C45.9706 47.9097 45.9655 47.9457 45.9594 47.9815C45.9533 48.0173 45.9462 48.0529 45.9382 48.0884C45.9303 48.1239 45.9215 48.1591 45.9116 48.194C45.9019 48.229 45.8912 48.2637 45.8795 48.2982C45.8679 48.3327 45.8555 48.3667 45.8421 48.4005C45.8287 48.4342 45.8145 48.4677 45.7994 48.5007C45.5185 49.1061 45.042 49.4176 44.442 49.646C44.055 49.7062 43.6786 49.6879 43.3099 49.5487C43.2755 49.5356 43.2416 49.5216 43.208 49.5067C43.1744 49.4918 43.1412 49.476 43.1085 49.4594C43.0757 49.4428 43.0435 49.4253 43.0116 49.407C42.9798 49.3887 42.9485 49.3695 42.9176 49.3496C42.8868 49.3296 42.8565 49.3089 42.8268 49.2874C42.7969 49.2658 42.7677 49.2435 42.7391 49.2205C42.7105 49.1974 42.6825 49.1736 42.6551 49.1491C42.6278 49.1246 42.6011 49.0994 42.575 49.0735C42.549 49.0476 42.5237 49.021 42.499 48.9939C42.4743 48.9666 42.4504 48.9388 42.4271 48.9104C42.4039 48.8819 42.3814 48.8528 42.3597 48.8231C42.3381 48.7935 42.3172 48.7633 42.297 48.7326C42.2768 48.7019 42.2575 48.6706 42.239 48.6389C42.2205 48.6071 42.2028 48.5749 42.186 48.5422C42.1692 48.5096 42.1532 48.4765 42.1381 48.4431C42.123 48.4096 42.1088 48.3757 42.0955 48.3415C42.0707 48.2794 42.0491 48.2162 42.0307 48.1519C42.0124 48.0876 41.9975 48.0226 41.9859 47.9567C41.9743 47.8908 41.9661 47.8245 41.9614 47.7579C41.9566 47.6912 41.9553 47.6245 41.9575 47.5576C41.9597 47.4908 41.9653 47.4242 41.9744 47.358C41.9834 47.2917 41.9958 47.2261 42.0116 47.1611C42.0275 47.0962 42.0466 47.0322 42.069 46.9692C42.0914 46.9062 42.117 46.8446 42.1459 46.7842C42.4256 46.1886 42.9103 45.8631 43.5088 45.6389Z" fill="#1976D2"/>
<path d="M41.7913 21.1513C43.793 20.8906 46.769 21.2375 48.731 21.6898C48.9283 21.7342 49.1249 21.781 49.321 21.8303C49.5171 21.8796 49.7125 21.9313 49.9073 21.9854C50.102 22.0395 50.2961 22.0961 50.4895 22.1551C50.6828 22.2141 50.8754 22.2755 51.0673 22.3393C51.2591 22.4031 51.4501 22.4693 51.6404 22.5378C51.8305 22.6063 52.0198 22.6773 52.2083 22.7505C52.3967 22.8238 52.5842 22.8994 52.7708 22.9774C52.9573 23.0553 53.1429 23.1355 53.3274 23.2181C53.512 23.3006 53.6955 23.3855 53.8779 23.4726C54.0603 23.5597 54.2416 23.6491 54.4219 23.7408C54.602 23.8324 54.7811 23.9263 54.9589 24.0224C55.1368 24.1185 55.3135 24.2168 55.4889 24.3173C55.6643 24.4178 55.8384 24.5204 56.0113 24.6253C56.1841 24.7302 56.3556 24.8372 56.5259 24.9463C56.696 25.0553 56.8648 25.1665 57.0323 25.2799C57.1997 25.3932 57.3657 25.5086 57.5303 25.6261C57.6948 25.7435 57.8578 25.863 58.0194 25.9845C58.181 26.1061 58.341 26.2296 58.4995 26.3551C58.658 26.4806 58.8149 26.6081 58.9703 26.7375C59.1256 26.8669 59.2793 26.9983 59.4313 27.1315C59.5833 27.2647 59.7337 27.3998 59.8824 27.5368C60.0311 27.6738 60.178 27.8126 60.3233 27.9533C60.4685 28.0939 60.612 28.2364 60.7536 28.3806C60.8953 28.5248 61.0351 28.6708 61.1731 28.8185C61.3112 28.9662 61.4474 29.1155 61.5818 29.2666C61.716 29.4178 61.8484 29.5705 61.979 29.7249C62.1095 29.8793 62.238 30.0353 62.3646 30.1929C62.4913 30.3505 62.616 30.5097 62.7386 30.6704C62.8612 30.8311 62.9818 30.9933 63.1005 31.157C63.2191 31.3208 63.3356 31.4859 63.4501 31.6525C63.5646 31.8192 63.6771 31.9872 63.7874 32.1566C63.8977 32.326 64.0059 32.4968 64.112 32.6689C66.8783 37.1005 68.1435 42.7046 67.7911 47.8989C67.6684 49.7091 67.3104 51.4865 66.9013 53.2505L64.9863 53.2483C65.1411 52.7568 65.2797 52.2609 65.402 51.7605C65.5244 51.26 65.6303 50.756 65.7195 50.2486C65.8088 49.7413 65.8814 49.2315 65.9373 48.7194C65.9932 48.2072 66.0322 47.6938 66.0544 47.179C66.312 40.6658 64.1004 34.5149 59.661 29.7273C55.8099 25.5739 50.1268 23.0181 44.471 22.7984C43.908 22.7597 43.3444 22.7423 42.7801 22.746C42.2158 22.7498 41.6524 22.7747 41.09 22.8209C40.5276 22.867 39.9677 22.9343 39.4104 23.0226C38.853 23.1109 38.2998 23.22 37.7506 23.35C37.565 23.3948 37.3799 23.4419 37.1954 23.4911C37.0109 23.5404 36.827 23.5919 36.6438 23.6456C36.4605 23.6994 36.2779 23.7553 36.096 23.8135C35.9141 23.8717 35.7329 23.932 35.5525 23.9946C35.3721 24.0572 35.1924 24.122 35.0135 24.1889C34.8347 24.2558 34.6567 24.3249 34.4795 24.3961C34.3023 24.4673 34.1259 24.5406 33.9505 24.6161C33.7751 24.6916 33.6006 24.7693 33.4271 24.849C33.2536 24.9288 33.081 25.0106 32.9095 25.0945C32.7379 25.1784 32.5674 25.2644 32.398 25.3525C32.2285 25.4405 32.0601 25.5306 31.8929 25.6228C31.7256 25.7148 31.5594 25.809 31.3944 25.9051C31.2294 26.0013 31.0656 26.0995 30.903 26.1996C30.7403 26.2997 30.5789 26.4018 30.4188 26.5059C30.2587 26.6099 30.0998 26.7158 29.9423 26.8238C29.7847 26.9317 29.6284 27.0415 29.4735 27.1531C29.3186 27.2648 29.1651 27.3783 29.0129 27.4938C28.8607 27.6091 28.71 27.7263 28.5606 27.8454C28.4113 27.9645 28.2634 28.0853 28.117 28.2079C27.9706 28.3305 27.8257 28.455 27.6824 28.5811C27.539 28.7073 27.3971 28.8352 27.2569 28.9648C27.1166 29.0943 26.9778 29.2256 26.8408 29.3585C26.7037 29.4915 26.5682 29.6261 26.4344 29.7623C26.3006 29.8985 26.1684 30.0363 26.0379 30.1758C25.9074 30.3153 25.7786 30.4563 25.6515 30.5988C25.5244 30.7413 25.3991 30.8854 25.2755 31.031C25.1519 31.1766 25.0301 31.3237 24.9101 31.4723C24.7901 31.6208 24.6719 31.7708 24.5555 31.9223C24.4391 32.0737 24.3246 32.2265 24.2119 32.3806C24.0992 32.5348 23.9884 32.6903 23.8795 32.8473C23.7706 33.0041 23.6636 33.1622 23.5585 33.3217C23.4534 33.4812 23.3503 33.6419 23.2491 33.8039C20.4 38.4635 19.3723 44.0848 20.056 49.4776C20.2204 50.7745 20.5115 52.0281 20.819 53.2978C20.2447 53.2942 19.6705 53.2995 19.0964 53.3139C18.673 51.6918 18.3771 49.9873 18.2589 48.314C17.7699 41.399 19.8391 34.8188 24.3954 29.568C24.5035 29.4436 24.6128 29.3202 24.7234 29.1979C24.834 29.0756 24.9458 28.9545 25.0589 28.8345C25.1719 28.7145 25.2861 28.5956 25.4015 28.4779C25.5168 28.3602 25.6334 28.2437 25.7511 28.1283C25.8689 28.0129 25.9878 27.8988 26.1079 27.7858C26.2279 27.6728 26.349 27.561 26.4713 27.4504C26.5936 27.3398 26.717 27.2305 26.8415 27.1224C26.9659 27.0143 27.0915 26.9075 27.2181 26.8019C27.3447 26.6964 27.4724 26.5921 27.6011 26.4891C27.7298 26.3861 27.8595 26.2844 27.9903 26.184C28.1211 26.0836 28.2529 25.9845 28.3856 25.8868C28.5183 25.789 28.652 25.6926 28.7868 25.5976C28.9214 25.5025 29.0571 25.4088 29.1936 25.3165C29.3301 25.2242 29.4676 25.1332 29.606 25.0436C29.7444 24.954 29.8837 24.8659 30.0239 24.7791C30.1641 24.6923 30.3051 24.6069 30.4469 24.523C30.5888 24.439 30.7315 24.3565 30.875 24.2754C31.0185 24.1943 31.1628 24.1147 31.308 24.0365C31.4532 23.9583 31.5991 23.8816 31.7458 23.8064C31.8924 23.7311 32.0398 23.6573 32.188 23.585C32.3361 23.5128 32.4849 23.442 32.6345 23.3726C32.7841 23.3033 32.9343 23.2355 33.0853 23.1693C33.2363 23.1029 33.3879 23.0381 33.5401 22.9749C33.6923 22.9116 33.8451 22.8499 33.9986 22.7898C34.1521 22.7296 34.3062 22.671 34.4609 22.6139C34.6156 22.5568 34.7708 22.5013 34.9265 22.4474C35.0823 22.3934 35.2386 22.341 35.3954 22.2901C35.5522 22.2393 35.7095 22.19 35.8673 22.1424C36.0251 22.0947 36.1834 22.0486 36.3421 22.0041C36.5009 21.9596 36.6601 21.9168 36.8196 21.8755C36.9792 21.8342 37.1392 21.7945 37.2996 21.7564C37.4601 21.7183 37.6208 21.6818 37.7819 21.647C39.1056 21.3693 40.444 21.2454 41.7913 21.1513Z" fill="white"/>
</svg>
