<svg xmlns="http://www.w3.org/2000/svg" version="1.1" xmlns:xlink="http://www.w3.org/1999/xlink" xmlns:svgjs="http://svgjs.dev/svgjs" width="124" height="124"><svg width="124" height="124" viewBox="0 0 124 124" fill="none" xmlns="http://www.w3.org/2000/svg">
<path d="M20.7928 37.4691C21.3814 37.4391 22.2349 37.4343 22.7367 37.8127C22.9995 38.0109 23.1312 38.203 23.1746 38.5409C23.3364 39.7976 20.7157 42.4125 19.9139 43.4276C19.8168 43.5517 19.7171 43.6108 19.5894 43.6973C19.4255 43.6775 19.3897 43.6806 19.2162 43.6208C18.7501 43.4602 18.3177 42.9577 18.1438 42.4904C17.9121 41.8668 17.9758 41.188 18.2247 40.582C18.6685 39.5019 19.7318 37.9185 20.7928 37.4691Z" fill="#1976D2"></path>
<path d="M82.8695 22.9366C84.0945 22.9275 85.2264 23.1837 86.1276 24.1087C87.3843 25.398 87.5065 27.0903 87.4967 28.8145C86.6635 28.3908 85.8125 28.0286 84.9526 27.6681C83.068 26.8911 81.2326 26.0209 79.3206 25.312C80.2845 23.999 81.2728 23.2199 82.8695 22.9366Z" fill="#1976D2"></path>
<path d="M54.8786 26.1667C55.2947 26.7714 55.8937 30.1693 56.1028 31.1808C53.3672 31.5502 50.7562 32.1947 48.1013 32.9625C47.5487 31.3567 47.2459 29.5436 46.9036 27.8711C49.5784 27.4108 52.2219 26.7309 54.8786 26.1667Z" fill="#1976D2"></path>
<path d="M26.3311 38.1642C26.9225 38.1434 27.3779 38.1618 27.9094 38.4606C28.475 38.7787 30.7453 40.689 30.9025 41.2356C30.8511 41.7434 30.6918 42.128 30.4352 42.5628C29.7604 43.7059 28.7929 44.7696 27.9743 45.8082C26.6679 47.4655 25.4008 49.2314 23.9349 50.7352C23.5722 50.8846 23.1826 50.9499 22.7959 50.8681C21.9447 50.6882 20.3588 49.233 19.8977 48.4827C19.6095 48.014 19.5748 47.5062 19.7187 46.976C20.1849 45.2611 21.9897 43.5679 23.0132 42.1742C23.8055 41.0955 24.5141 39.9274 25.401 38.9288C25.6837 38.6105 25.9702 38.3774 26.3311 38.1642Z" fill="#1976D2"></path>
<path d="M77.2267 26.343C77.5459 26.4105 77.8467 26.4974 78.1536 26.6118C79.8784 27.2542 81.555 28.0763 83.252 28.7973C84.7353 29.4273 86.3219 29.9551 87.7336 30.7398C88.0222 30.9001 88.4062 31.0939 88.5266 31.4327C88.8956 32.4697 88.1422 33.4955 87.7446 34.3879C87.5812 34.7546 87.485 35.1587 87.302 35.5147C87.0385 36.0272 86.6192 36.1559 86.1215 36.2991C85.7506 36.1962 85.39 36.0687 85.0296 35.9315C83.337 35.2867 81.6878 34.4851 80.0144 33.7841C78.5754 33.1815 76.9897 32.6603 75.6276 31.8981C75.2983 31.7139 74.8186 31.446 74.6845 31.0581C74.4587 30.4052 75.3664 28.7685 75.6312 28.0289C75.9662 27.0943 76.3682 26.7545 77.2267 26.343Z" fill="#1976D2"></path>
<path d="M54.9693 16.3893C55.3306 16.34 55.7161 16.3876 56.045 16.5563C56.701 16.8933 57.0326 17.7089 57.2257 18.4006C57.5356 19.511 58.2312 22.2474 57.6032 23.2644C57.3978 23.5973 56.9874 23.8158 56.6391 23.9409C55.1807 24.4651 53.4401 24.6553 51.9212 24.981C49.5622 25.4866 47.2181 26.1009 44.8605 26.6266C44.3454 26.7538 43.7661 26.7893 43.2865 26.5065C42.4076 25.9885 42.2275 23.501 41.9912 22.4574C41.7998 21.612 41.5863 20.5831 42.0911 19.8072C42.3857 19.3542 42.9951 19.1217 43.4707 18.9549C45.057 18.399 46.8639 18.165 48.506 17.8025C50.654 17.3286 52.8 16.7412 54.9693 16.3893Z" fill="#1976D2"></path>
<path d="M52.2358 4.01082C53.0096 3.98429 53.7821 4.00653 54.5534 4.07754C55.3246 4.14855 56.0889 4.26769 56.8463 4.43496C60.7857 5.33281 64.5359 7.52571 66.7333 11.1392C68.5482 14.1237 68.9812 17.4127 68.2326 20.8197C69.6142 21.7988 74.3177 24.0029 74.993 25.1997C75.1657 25.5055 75.2588 25.89 75.1411 26.2353C74.9608 26.7641 74.4368 27.0147 74.0019 27.2749C72.2675 26.3916 67.4346 23.843 66.3581 22.577C65.2354 21.2569 66.1328 18.9127 66.0861 17.3219C66.0333 15.5229 65.4947 13.9426 64.5485 12.4422C62.6918 9.49939 59.6397 7.77185 56.3877 7.07059C50.7326 5.8513 43.7622 7.61125 38.9865 10.8871C38.4894 11.236 38.011 11.6109 37.5514 12.0118C35.3851 13.9121 33.6755 16.4817 33.429 19.486C33.1015 23.477 34.8734 25.6129 37.1657 28.4556C36.8823 31.3588 33.4468 36.9975 31.3508 39.0606C30.6269 38.5192 30.0248 37.9156 29.4265 37.2308C31.3003 34.6698 32.9726 32.1671 34.1767 29.1745C32.3273 26.749 30.9016 24.3124 30.6897 21.1487C30.4589 17.6965 31.7802 14.4656 33.9541 11.9056C38.4474 6.61404 45.6758 4.43735 52.2358 4.01082Z" fill="#1976D2"></path>
<path d="M62.1564 31.411C64.3689 31.2185 67.2566 31.2802 69.4127 31.8102C61.5739 31.9062 55.375 32.6761 48.2901 36.455C47.9564 36.6318 47.6249 36.8128 47.2955 36.998C46.9662 37.1834 46.6391 37.3729 46.3143 37.5666C45.9895 37.7604 45.667 37.9583 45.3468 38.1603C45.0267 38.3624 44.7091 38.5686 44.3939 38.7789C44.0787 38.9893 43.766 39.2036 43.4558 39.4221C43.1456 39.6405 42.8381 39.8629 42.5333 40.0892C42.2284 40.3154 41.9263 40.5456 41.627 40.7798C41.3276 41.0139 41.0311 41.252 40.7374 41.4939C40.4437 41.7357 40.1529 41.9812 39.8651 42.2304C39.5772 42.4798 39.2923 42.7329 39.0105 42.9896C38.7287 43.2463 38.4499 43.5066 38.1741 43.7704C37.8985 44.0343 37.6261 44.3017 37.3567 44.5727C37.0874 44.8437 36.8213 45.1182 36.5585 45.396C36.2957 45.6738 36.0363 45.955 35.7802 46.2395C35.5241 46.524 35.2714 46.8118 35.0222 47.1028C34.773 47.3938 34.5272 47.6881 34.285 47.9856C34.0426 48.283 33.8039 48.5835 33.5688 48.8871C33.3338 49.1906 33.1023 49.4972 32.8744 49.8068C32.6466 50.1164 32.4225 50.4289 32.2021 50.7442C31.9817 51.0595 31.765 51.3777 31.5522 51.6988C31.3394 52.0197 31.1304 52.3433 30.9254 52.6698C30.7202 52.9961 30.5189 53.325 30.3216 53.6567C30.1244 53.9883 29.931 54.3223 29.7417 54.6589C29.5523 54.9954 29.367 55.3343 29.1857 55.6757C29.0042 56.0171 28.827 56.3607 28.6539 56.7067C28.4807 57.0527 28.3117 57.4008 28.1469 57.7511C27.982 58.1014 27.8214 58.4538 27.6649 58.8084C27.5085 59.1628 27.3562 59.5192 27.2081 59.8775C27.0602 60.2359 26.9165 60.5962 26.7769 60.9584C26.6375 61.3204 26.5024 61.6843 26.3715 62.0499C26.2408 62.4156 26.1144 62.7829 25.9924 63.1518C25.8702 63.5206 25.7525 63.891 25.6394 64.2629C25.5364 64.609 25.4374 64.9563 25.3425 65.3049C25.2476 65.6536 25.1567 66.0034 25.0699 66.3543C24.9831 66.7052 24.9003 67.0571 24.8217 67.4101C24.7431 67.7631 24.6686 68.117 24.5982 68.4719C24.5279 68.8267 24.4616 69.1825 24.3994 69.5391C24.3373 69.8956 24.2792 70.2529 24.2253 70.6109C24.1714 70.9688 24.1216 71.3274 24.0761 71.6868C24.0307 72.0461 23.9893 72.4059 23.952 72.7662C23.9148 73.1265 23.8818 73.4871 23.853 73.8482C23.8243 74.2094 23.7996 74.5709 23.7792 74.9326C23.7588 75.2945 23.7426 75.6565 23.7306 76.0187C23.7185 76.3807 23.7107 76.743 23.707 77.1055C23.7034 77.4679 23.704 77.8302 23.7089 78.1926C23.7136 78.5549 23.7226 78.9172 23.7358 79.2794C23.7489 79.6414 23.7663 80.0033 23.7879 80.365C23.8096 80.7267 23.8354 81.0881 23.8654 81.4491C23.8954 81.8101 23.9295 82.1707 23.9678 82.5309C24.0062 82.8911 24.0487 83.2507 24.0955 83.6099C24.1421 83.9689 24.1929 84.3273 24.2479 84.6852C24.3031 85.043 24.3623 85.4 24.4255 85.7563C24.4889 86.1128 24.5563 86.4683 24.6279 86.8229C24.6994 87.1774 24.775 87.5311 24.8549 87.8839C24.9347 88.2366 25.0186 88.5882 25.1065 88.9388C25.1944 89.2894 25.2863 89.6389 25.3823 89.9872C25.4784 90.3354 25.5785 90.6825 25.6825 91.0283C25.7866 91.374 25.8947 91.7183 26.0068 92.0615C26.1189 92.4044 26.235 92.746 26.3551 93.0861C26.4751 93.4262 26.599 93.7647 26.7269 94.1016C26.8547 94.4386 26.9865 94.7739 27.1222 95.1077C27.2578 95.4413 27.3972 95.7731 27.5406 96.1032C27.684 96.4333 27.8311 96.7616 27.9821 97.088C28.1331 97.4145 28.2879 97.7389 28.4464 98.0614C33.7407 108.768 42.7495 116.358 53.6938 120.019C54.3368 120.199 54.97 120.429 55.6037 120.641C55.0708 120.573 54.5393 120.494 54.0091 120.405C53.479 120.316 52.9506 120.217 52.4241 120.107C51.8976 119.997 51.3733 119.877 50.851 119.747C50.3288 119.616 49.8091 119.476 49.2921 119.325C48.775 119.174 48.2609 119.013 47.7496 118.842C47.2383 118.671 46.7303 118.49 46.2254 118.299C45.7207 118.108 45.2196 117.908 44.7222 117.697C44.2247 117.486 43.7312 117.266 43.2417 117.036C42.7521 116.806 42.2668 116.566 41.786 116.317C41.3052 116.068 40.829 115.809 40.3574 115.541C39.8859 115.274 39.4194 114.997 38.9579 114.71C38.4965 114.424 38.0403 114.129 37.5893 113.825C37.1386 113.521 36.6934 113.208 36.2539 112.887C35.8142 112.565 35.3806 112.235 34.953 111.896C34.5255 111.558 34.1042 111.211 33.689 110.855C33.2739 110.5 32.8654 110.137 32.4635 109.766C32.2102 109.531 31.9596 109.292 31.7119 109.051C31.4641 108.81 31.2191 108.565 30.977 108.318C30.735 108.07 30.4958 107.82 30.2595 107.566C30.0232 107.312 29.7899 107.056 29.5595 106.797C29.3294 106.537 29.1021 106.275 28.8779 106.01C28.6536 105.744 28.4325 105.476 28.2145 105.205C27.9965 104.935 27.7817 104.661 27.5701 104.385C27.3585 104.109 27.1501 103.83 26.9449 103.548C26.7397 103.267 26.5378 102.983 26.3393 102.696C26.1406 102.41 25.9454 102.121 25.7536 101.829C25.5617 101.537 25.3732 101.243 25.1883 100.947C25.0032 100.651 24.8216 100.352 24.6435 100.052C24.4654 99.7506 24.2908 99.4476 24.1197 99.1422C23.9488 98.8371 23.7814 98.5297 23.6174 98.2201C23.4535 97.9106 23.2932 97.5991 23.1364 97.2856C22.9798 96.972 22.8268 96.6565 22.6773 96.3391C22.528 96.0217 22.3824 95.7025 22.2404 95.3814C22.0984 95.0602 21.9602 94.7374 21.8259 94.4128C21.6914 94.0883 21.5607 93.7621 21.434 93.4342C21.3071 93.1063 21.184 92.7769 21.0647 92.4458C20.9456 92.1148 20.8302 91.7823 20.7187 91.4484C20.6072 91.1146 20.4996 90.7794 20.3958 90.4426C20.2922 90.106 20.1925 89.7681 20.0967 89.4289C20.0007 89.0899 19.9088 88.7497 19.8209 88.4081C19.733 88.0668 19.649 87.7243 19.5691 87.3807C19.4891 87.0371 19.4131 86.6925 19.341 86.347C19.2689 86.0015 19.201 85.6551 19.1372 85.3079C19.0732 84.9606 19.0132 84.6126 18.9573 84.264C18.9014 83.9153 18.8496 83.5659 18.8019 83.2158C18.7541 82.8658 18.7104 82.5152 18.6708 82.164C18.6312 81.8129 18.5957 81.4614 18.5643 81.1094C18.5329 80.7572 18.5056 80.4047 18.4822 80.0521C17.6991 66.9869 21.9703 55.7438 30.2462 46.0136C38.5676 36.2298 49.8869 32.17 62.1564 31.411Z" fill="#1976D2"></path>
<path d="M64.4411 34.7455C64.4735 34.741 64.506 34.7351 64.5386 34.7322C74.0913 33.8763 84.6636 38.4737 91.8499 44.8401C99.9142 51.9847 104.803 62.5475 105.65 73.4922C106.519 84.7374 102.93 95.5513 95.9291 104.084C95.711 104.348 95.4898 104.609 95.2655 104.868C95.0413 105.126 94.8141 105.381 94.5839 105.634C94.3535 105.886 94.1203 106.135 93.8842 106.382C93.648 106.628 93.409 106.871 93.1671 107.112C92.9252 107.352 92.6805 107.589 92.4331 107.823C92.1855 108.057 91.9353 108.288 91.6824 108.516C91.4294 108.743 91.1737 108.967 90.9155 109.188C90.6573 109.41 90.3965 109.627 90.1331 109.842C89.8698 110.056 89.604 110.267 89.3356 110.474C89.0673 110.682 88.7966 110.886 88.5234 111.087C88.2503 111.287 87.9747 111.484 87.6969 111.678C87.4191 111.871 87.1391 112.061 86.8568 112.247C86.5746 112.434 86.2901 112.616 86.0036 112.796C85.717 112.975 85.4283 113.15 85.1375 113.321C84.8468 113.493 84.5542 113.661 84.2595 113.825C83.9647 113.989 83.6681 114.15 83.3697 114.306C83.0713 114.463 82.771 114.615 82.4689 114.764C82.1668 114.913 81.863 115.058 81.5576 115.199C81.2521 115.34 80.9451 115.477 80.6364 115.61C80.3276 115.743 80.0174 115.873 79.7057 115.998C79.3938 116.123 79.0806 116.244 78.766 116.361C78.4514 116.478 78.1355 116.592 77.8181 116.701C77.5008 116.81 77.1823 116.915 76.8625 117.015C76.5427 117.117 76.2218 117.213 75.8997 117.306C75.5777 117.399 75.2547 117.487 74.9306 117.571C74.6064 117.656 74.2813 117.736 73.9553 117.812C73.6293 117.888 73.3024 117.96 72.9745 118.028C72.6468 118.095 72.3184 118.159 71.9892 118.218C71.6599 118.277 71.3301 118.332 70.9997 118.383C70.6691 118.434 70.338 118.48 70.0063 118.523C69.6748 118.565 69.3428 118.603 69.0102 118.637C68.6777 118.67 68.3448 118.7 68.0116 118.725C67.93 118.735 67.8482 118.744 67.7664 118.751C59.9647 119.393 51.7077 117 45.1189 112.681C43.4325 111.575 41.8301 110.247 40.3057 108.911C32.3865 101.971 27.4997 91.3728 26.6304 80.7045C25.7177 69.5003 29.4677 58.3983 36.404 49.8583C43.6393 40.9501 53.2897 35.7125 64.4411 34.7455Z" fill="#1976D2"></path>
<path d="M35.5685 54.9558C36.5038 55.1874 41.4444 58.2391 41.8235 58.9854C41.9482 59.2311 41.9981 59.6071 41.9142 59.8728C41.7538 60.3798 41.2837 60.6403 40.8637 60.8752C40.831 60.8683 40.7979 60.8635 40.7654 60.855C39.6158 60.5502 35.1817 58.0056 34.6481 56.9776C34.4662 56.6274 34.4157 56.3278 34.5416 55.9409C34.7027 55.4453 35.1508 55.1786 35.5685 54.9558Z" fill="white"></path>
<path d="M47.5645 42.4349C48.0656 42.4384 48.652 42.4432 49.0238 42.8476C49.66 43.5398 52.4858 48.6085 52.3636 49.3696C52.2801 49.8871 51.9118 50.1652 51.5452 50.4723C51.2539 50.5281 50.9605 50.5791 50.6645 50.5186C50.42 50.4683 50.2781 50.3143 50.1373 50.1159C49.4486 49.1444 47.2359 45.1522 46.8732 44.1145C46.7935 43.8865 46.7839 43.6258 46.8275 43.388C46.9128 42.9233 47.2219 42.6974 47.5645 42.4349Z" fill="white"></path>
<path d="M29.0584 71.7699C29.2311 71.7475 29.4014 71.7339 29.5757 71.7332C30.9669 71.7268 36.3325 71.7487 37.1083 72.7142C37.2655 72.9096 37.3779 73.1608 37.3153 73.4231C37.2006 73.9037 36.7943 74.3581 36.4278 74.6486C36.3802 74.6588 36.3329 74.6698 36.2852 74.6791C35.5669 74.8185 30.8419 74.5771 29.9957 74.4348C29.5677 74.3629 29.1171 74.2135 28.7631 73.9452C28.5172 73.7588 28.2901 73.4524 28.3075 73.1179C28.3346 72.601 28.6946 72.0883 29.0584 71.7699Z" fill="white"></path>
<path d="M94.5062 53.9903C95.0286 53.9791 95.4102 54.0244 95.7943 54.4288C96.0525 54.7006 96.1764 54.9554 96.1357 55.3461C96.0062 56.5978 91.3648 59.6581 90.3554 60.4201C90.3111 60.4203 90.267 60.4213 90.2227 60.4211C89.7421 60.4177 88.9859 60.3334 88.6697 59.8866C88.4958 59.6409 88.4965 59.3774 88.5634 59.0938C88.9137 57.6139 93.1815 54.9165 94.5062 53.9903Z" fill="white"></path>
<path d="M64.0469 37.3216C64.1904 37.3051 64.354 37.278 64.4998 37.2858C64.9066 37.3082 65.2587 37.4519 65.5222 37.7834C65.6764 37.9771 65.7644 38.1694 65.8037 38.4174C65.9849 39.5583 66.0094 44.1726 65.8302 45.2909C65.7422 45.8389 65.4267 46.0837 65.027 46.4003C64.875 46.4277 64.8785 46.4306 64.7014 46.4423C64.3156 46.4678 63.8771 46.4058 63.6127 46.0734C63.0078 45.3135 63.1495 39.834 63.2658 38.6676C63.3348 37.9776 63.5396 37.741 64.0469 37.3216Z" fill="white"></path>
<path d="M72.1912 105.455C72.597 105.545 72.9508 105.703 73.2197 106.044C73.6891 106.638 75.2693 113.08 75.0872 113.799C74.9615 114.295 74.435 114.526 74.0463 114.749C73.8532 114.704 73.6596 114.658 73.4699 114.6C73.1521 114.502 72.9003 114.338 72.7465 114.016C72.2892 113.057 70.7243 107.167 71.0577 106.391C71.2597 105.921 71.776 105.667 72.1912 105.455Z" fill="white"></path>
<path d="M82.2927 41.828C82.3427 41.832 82.3932 41.8339 82.4433 41.8403C82.9179 41.9009 83.5968 42.1044 83.8692 42.5554C84.0136 42.7944 84.0621 42.9808 84.0107 43.2607C83.7872 44.4791 80.7235 49.4649 79.8204 50.1297C79.7829 50.1299 79.7454 50.1306 79.7082 50.1304C79.2068 50.1287 78.745 50.0715 78.4081 49.6374C78.1675 49.3267 78.1508 48.8916 78.2132 48.5141C78.3995 47.3859 81.4031 42.4685 82.2927 41.828Z" fill="white"></path>
<path d="M84.4691 98.5549C84.6551 98.5477 84.8804 98.5272 85.0621 98.5689C85.9983 98.7843 89.3986 102.773 90.0828 103.717C90.3627 104.103 90.7174 104.582 90.5803 105.098C90.4422 105.618 90.0206 105.921 89.6015 106.179C89.4934 106.182 89.4534 106.187 89.3369 106.169C88.3001 106.013 84.5308 101.68 83.8119 100.629C83.5724 100.279 83.4545 100.018 83.5465 99.5788C83.6514 99.0793 84.0838 98.8034 84.4691 98.5549Z" fill="white"></path>
<path d="M45.2512 99.4027L45.3639 99.4036C45.6155 99.4043 45.8881 99.3908 46.1287 99.4773C46.4443 99.5909 46.7516 99.8478 46.8517 100.189C46.9838 100.64 46.7992 101.166 46.5903 101.557C46.0542 102.562 43.2213 105.936 42.2823 106.723C42.0748 106.897 41.8153 106.986 41.5641 107.066C41.5088 107.074 41.454 107.087 41.3984 107.091C41.1171 107.111 40.9394 107.039 40.7328 106.839C40.3304 106.449 40.161 105.987 40.1229 105.428C40.5203 104.418 44.373 99.9707 45.2512 99.4027Z" fill="white"></path>
<path d="M37.7518 86.9889C37.968 86.9606 38.2244 86.9584 38.4307 87.0385C38.7168 87.1493 39.0404 87.4962 39.1734 87.7795C39.319 88.0903 39.313 88.3278 39.1944 88.6476C38.733 89.8917 33.3705 91.8444 31.9971 92.3703C31.8161 92.3348 31.8415 92.3515 31.6954 92.2874C31.2309 92.0839 30.7613 91.6978 30.5906 91.182C30.5051 90.9244 30.5216 90.6956 30.6324 90.4504C31.0471 89.5314 36.6005 87.4822 37.7518 86.9889Z" fill="white"></path>
<path d="M57.3216 105.585C57.4843 105.567 57.653 105.542 57.8175 105.552C58.4635 105.592 58.831 106.136 59.1966 106.619C59.192 106.668 59.1881 106.716 59.1831 106.764C59.025 108.28 58.1724 112.854 57.5664 114.123C57.4425 114.382 57.2309 114.567 57.0186 114.746C56.4853 114.787 55.8619 114.836 55.4574 114.397C55.1754 114.09 55.1576 113.718 55.18 113.319C55.2613 111.874 56.1896 107.597 56.7643 106.3C56.8916 106.013 57.1025 105.798 57.3216 105.585Z" fill="white"></path>
<path d="M92.3576 86.1347C92.5231 86.1268 92.5706 86.1194 92.723 86.1287C93.6981 86.1878 97.9005 87.9511 98.8324 88.4737C99.1695 88.6626 99.5001 88.8961 99.738 89.2131C99.9594 89.5078 100.103 89.8366 100.024 90.2203C99.9165 90.7407 99.5394 91.0471 99.1546 91.3511C99.1199 91.3554 99.0854 91.3621 99.0504 91.364C98.3294 91.4074 92.1963 88.8907 91.7343 88.3676C91.5306 88.1372 91.4246 87.7276 91.4662 87.4212C91.5437 86.8488 91.9673 86.494 92.3576 86.1347Z" fill="white"></path>
<path d="M100.448 70.6014C100.798 70.5497 101.208 70.4741 101.548 70.6152C101.917 70.7679 102.184 71.0558 102.303 71.4528C102.42 71.8428 102.347 72.2172 102.133 72.5515C101.452 73.6156 96.8421 73.7958 95.4897 73.9981C95.0196 74.0388 94.2402 74.1823 93.7982 73.9583C93.4513 73.7827 93.1812 73.3959 93.1013 72.9987C93.0327 72.6573 93.0841 72.4128 93.2729 72.1264C93.9975 71.0272 99.1224 70.7713 100.448 70.6014Z" fill="white"></path>
<path d="M74.1457 40.0256C74.3673 41.2523 67.6967 70.5983 66.6812 74.4217C67.0507 74.9903 67.4152 75.5436 67.6247 76.2026C67.6506 76.2838 67.6746 76.3656 67.6967 76.4478C67.7187 76.5303 67.7386 76.6132 67.7566 76.6966C67.7746 76.7802 67.7906 76.864 67.8046 76.9482C67.8184 77.0326 67.8303 77.1172 67.8402 77.202C67.8501 77.287 67.858 77.3721 67.8638 77.4574C67.8696 77.5427 67.8732 77.6281 67.8747 77.7136C67.8764 77.7991 67.876 77.8846 67.8736 77.9702C67.8712 78.0557 67.8666 78.141 67.8599 78.2261C67.8533 78.3114 67.8447 78.3965 67.8341 78.4813C67.8234 78.5662 67.8107 78.6506 67.7959 78.7346C67.7811 78.8188 67.7643 78.9025 67.7454 78.9858C67.7267 79.069 67.7059 79.1517 67.683 79.2338C67.6603 79.316 67.6356 79.3974 67.6087 79.4783C67.5821 79.5592 67.5535 79.6393 67.5228 79.7187C67.4922 79.798 67.4597 79.8765 67.4253 79.9542C67.391 80.0318 67.3548 80.1086 67.3167 80.1843C67.2821 80.2544 67.2459 80.3235 67.2079 80.3916C67.17 80.4596 67.1305 80.5267 67.0896 80.5927C67.0484 80.6588 67.0058 80.7239 66.9616 80.7879C66.9174 80.8518 66.8718 80.9144 66.8247 80.9759C66.7775 81.0374 66.7289 81.0977 66.6789 81.1568C66.6288 81.2157 66.5774 81.2734 66.5247 81.3298C66.4718 81.386 66.4177 81.4409 66.3624 81.4944C66.307 81.5479 66.2503 81.6 66.1924 81.6507C66.1345 81.7012 66.0755 81.7503 66.0153 81.798C65.9551 81.8455 65.8939 81.8915 65.8316 81.9359C65.7691 81.9803 65.7057 82.023 65.6412 82.0641C65.5768 82.1051 65.5114 82.1445 65.4452 82.1823C65.3789 82.22 65.3117 82.2559 65.2436 82.2903C65.1757 82.3244 65.1069 82.3568 65.0373 82.3875C64.9678 82.4183 64.8976 82.4472 64.8266 82.4742C64.7556 82.5012 64.684 82.5264 64.612 82.5498C63.2797 82.9751 62.0366 82.6841 60.8408 82.0153C59.9391 81.3462 59.2985 80.5677 58.9373 79.4592C58.5307 78.2111 58.6592 76.8937 59.2458 75.7311C59.8845 74.4651 60.887 73.7157 62.1724 73.2897C66.3905 62.2982 69.9504 51.0318 74.1457 40.0256Z" fill="white"></path>
</svg><style>@media (prefers-color-scheme: light) { :root { filter: none; } }
@media (prefers-color-scheme: dark) { :root { filter: none; } }
</style></svg>