<?xml version="1.0" encoding="utf-8" ?>
<svg xmlns="http://www.w3.org/2000/svg" xmlns:xlink="http://www.w3.org/1999/xlink" width="128" height="128">
	<path fill="#29293B" transform="scale(0.125 0.125)" d="M0 0L1024 0L1024 1024L0 1024L0 0Z"/>
	<path fill="#FEFEFE" transform="scale(0.125 0.125)" d="M433.383 789.146L439.017 789.084L439.038 831.012C437.08 831.078 435.416 831.071 433.501 830.636C432.092 827.446 432.948 794.32 433.383 789.146Z"/>
	<path fill="#FEFEFE" transform="scale(0.125 0.125)" d="M334.745 284.138C337.321 284.012 341.056 283.992 343.252 285.58C344.402 286.412 344.978 287.218 345.168 288.636C345.876 293.91 334.408 304.884 330.899 309.144C330.474 309.665 330.038 309.913 329.479 310.276C328.762 310.193 328.605 310.206 327.846 309.955C325.806 309.281 323.914 307.172 323.153 305.211C322.139 302.594 322.418 299.745 323.507 297.202C325.449 292.669 330.102 286.024 334.745 284.138Z"/>
	<path fill="#FEFEFE" transform="scale(0.125 0.125)" d="M381.308 788.992C388.843 788.975 408.453 788.017 414.683 789.312C415.044 790.863 414.957 792.174 414.831 793.754C412.579 795.248 404.134 794.32 401.069 794.325L401.099 817.25L401.084 830.899L394.771 830.956C394.974 818.721 394.907 806.471 394.945 794.235C390.696 794.137 385.889 795.307 381.971 793.476C380.963 791.91 381.274 790.827 381.308 788.992Z"/>
	<path fill="#FEFEFE" transform="scale(0.125 0.125)" d="M606.397 223.149C611.758 223.111 616.711 224.186 620.655 228.068C626.154 233.479 626.689 240.581 626.646 247.817C623 246.039 619.276 244.519 615.513 243.006C607.266 239.745 599.234 236.093 590.867 233.118C595.085 227.608 599.41 224.338 606.397 223.149Z"/>
	<path fill="#FEFEFE" transform="scale(0.125 0.125)" d="M533.979 789.526C542.078 789.587 550.213 789.152 558.297 789.319C559.913 789.353 561.648 789.306 562.802 790.494C562.98 792.03 562.968 792.336 562.38 793.76C559.344 795.477 544.069 794.395 539.564 794.374L539.529 807.675C543.949 807.694 555.33 806.4 558.95 808.159C560.288 808.809 560.35 809.09 560.846 810.4L560.301 811.171C554.947 813.305 546.704 812.178 540.963 812.119C540.627 812.154 540.341 812.384 540.038 812.535C539.065 816.43 539.761 821.766 539.794 825.829C543.918 825.73 560.834 824.95 563.349 826.676C563.766 828.056 563.592 829.023 563.356 830.4C560.495 831.866 538.693 830.892 533.997 830.849L533.979 789.526Z"/>
	<path fill="#FEFEFE" transform="scale(0.125 0.125)" d="M483.907 236.705C485.728 239.243 488.349 253.503 489.264 257.748C477.293 259.298 465.867 262.003 454.249 265.225C451.831 258.486 450.506 250.877 449.008 243.858C460.713 241.926 472.281 239.073 483.907 236.705Z"/>
	<path fill="#FEFEFE" transform="scale(0.125 0.125)" d="M464.438 788.555C465.54 788.569 466.626 788.656 467.723 788.74C471.098 790.751 483.985 814.709 486.848 819.423C489.25 814.828 492.13 810.525 494.69 806.023C497.537 801.016 500.124 795.427 503.412 790.715C504.097 789.733 504.723 789.159 505.953 789.013C507.153 788.87 508.242 788.951 509.148 789.713C509.694 793.441 509.866 827.933 509.13 829.523C508.567 830.742 507.836 830.882 506.687 831.341C505.22 831.127 505.041 831.112 503.94 830.138C502.922 825.035 503.721 818.154 503.754 812.875L503.803 800.371C501.159 804.479 491.174 822.802 488.881 824.653C487.751 825.565 487.486 825.547 486.13 825.459C482.039 823.033 473.457 806.645 470.146 801.407Q470.413 816.088 470.365 830.772L464.521 830.726L464.438 788.555Z"/>
	<path fill="#FEFEFE" transform="scale(0.125 0.125)" d="M585.555 789.12C593.727 789.068 604.337 787.907 611.954 791.477Q612.531 791.743 613.077 792.067Q613.624 792.391 614.134 792.769Q614.645 793.147 615.114 793.575Q615.583 794.003 616.007 794.477Q616.43 794.951 616.802 795.466Q617.175 795.98 617.493 796.53Q617.811 797.08 618.071 797.659Q618.331 798.239 618.531 798.842C619.87 802.824 619.481 807.524 617.496 811.222C615.542 814.861 613.221 816.179 609.369 817.355C611.41 819.863 618.952 827.565 619.042 830.745L617.548 831.178L614.465 830.995C610.256 828.715 606.899 822.246 604.265 818.308L591.903 818.418L591.931 830.628L585.726 830.699Q585.496 809.91 585.555 789.12Z"/>
	<path fill="#29293B" transform="scale(0.125 0.125)" d="M591.59 794.297C597.63 794.302 604.786 793.64 610.108 796.968C612.02 798.163 613.534 799.784 613.98 802.043C614.561 804.984 612.596 808.824 610.849 811.027C604.989 814.746 598.217 813.968 591.575 813.915L591.59 794.297Z"/>
	<path fill="#FEFEFE" transform="scale(0.125 0.125)" d="M428.219 691.673Q452.235 691.939 476.252 691.883L476.198 702.012L458.244 702.02C458.094 712.752 458.274 723.515 458.297 734.25L458.219 752.051L446.399 752.031C446.14 735.384 446.389 718.708 446.439 702.058C440.382 702.415 434.269 702.29 428.203 702.319L428.219 691.673Z"/>
	<path fill="#FEFEFE" transform="scale(0.125 0.125)" d="M358.981 287.055C361.569 286.968 363.562 287.045 365.888 288.299C368.363 289.634 378.298 297.651 378.986 299.945C378.761 302.076 378.064 303.69 376.941 305.515C373.988 310.312 369.754 314.776 366.172 319.135C360.455 326.09 354.91 333.501 348.495 339.812C346.908 340.439 345.203 340.713 343.511 340.37C339.786 339.615 332.846 333.508 330.828 330.359C329.567 328.392 329.415 326.261 330.045 324.036C332.085 316.839 339.983 309.733 344.462 303.884C347.929 299.357 351.03 294.455 354.911 290.264C356.148 288.928 357.402 287.95 358.981 287.055Z"/>
	<path fill="#FEFEFE" transform="scale(0.125 0.125)" d="M581.704 237.445C583.101 237.728 584.417 238.093 585.76 238.573C593.308 241.269 600.645 244.719 608.071 247.745C614.562 250.389 621.505 252.604 627.683 255.897C628.946 256.57 630.626 257.383 631.153 258.805C632.768 263.157 629.471 267.462 627.731 271.207C627.016 272.746 626.595 274.442 625.794 275.936C624.641 278.087 622.806 278.627 620.628 279.228C619.005 278.796 617.427 278.261 615.85 277.685C608.443 274.979 601.226 271.615 593.903 268.673C587.606 266.144 580.667 263.957 574.706 260.758C573.265 259.985 571.166 258.861 570.579 257.233C569.591 254.493 573.563 247.624 574.722 244.52C576.188 240.598 577.947 239.172 581.704 237.445Z"/>
	<path fill="#FEFEFE" transform="scale(0.125 0.125)" d="M367.907 691.494C372.385 691.414 376.875 691.481 381.355 691.476C381.562 701.824 380.138 721.578 381.787 730.765C382.252 733.356 383.202 735.927 384.905 737.967C387.226 740.746 390.526 742.022 394.064 742.336C397.55 742.646 401.093 742.139 403.758 739.689C405.844 737.772 407.075 735.077 407.7 732.351C409.439 724.768 408.618 701.094 408.786 691.705L420.858 691.658L420.799 702.162C420.854 714.477 423.202 735.961 414.614 745.746C409.994 751.01 403.153 752.921 396.384 753.189C388.645 753.495 380.713 751.39 375.037 745.875Q373.91 744.781 372.933 743.552Q371.956 742.322 371.147 740.976Q370.337 739.63 369.708 738.191Q369.079 736.752 368.641 735.244C365.708 724.879 367.843 703.134 367.907 691.494Z"/>
	<path fill="#FEFEFE" transform="scale(0.125 0.125)" d="M271.187 690.671C279.889 690.133 288.107 692.151 295.286 697.091C293.448 700.182 291.892 703.465 290.27 706.674C286.645 705.228 282.987 703.754 279.14 703.006C275.529 702.304 268.461 701.722 265.434 704.261Q265.246 704.42 265.076 704.598Q264.905 704.776 264.755 704.97Q264.604 705.165 264.474 705.375Q264.345 705.584 264.238 705.806Q264.131 706.028 264.048 706.26Q263.964 706.491 263.906 706.731Q263.848 706.97 263.814 707.214Q263.781 707.458 263.774 707.704C263.552 716.65 286.094 716.394 292.894 722.895C295.79 725.663 297.582 730.006 297.659 733.992Q297.663 734.445 297.645 734.898Q297.626 735.351 297.585 735.802Q297.544 736.253 297.48 736.702Q297.416 737.151 297.329 737.596Q297.243 738.04 297.134 738.48Q297.025 738.92 296.895 739.354Q296.764 739.788 296.611 740.215Q296.459 740.642 296.285 741.06Q296.111 741.479 295.917 741.888Q295.722 742.297 295.507 742.696Q295.292 743.095 295.057 743.483Q294.822 743.87 294.568 744.246Q294.314 744.621 294.042 744.983Q293.769 745.345 293.479 745.693Q293.188 746.041 292.881 746.373Q292.573 746.706 292.249 747.023C286.392 752.805 278.611 753.93 270.785 753.794C262.359 753.2 255.039 750.802 247.874 746.317C249.085 742.629 250.894 739.027 252.457 735.469Q256.256 737.659 260.303 739.346C265.563 741.499 274.261 743.384 279.601 740.889C281.589 739.961 283.382 738.046 284.045 735.97C282.433 729.404 263.146 727.242 256.959 723.17C253.238 720.722 250.565 717.134 249.83 712.689C249.112 708.347 250.287 702.884 252.964 699.355C257.268 693.683 264.467 691.591 271.187 690.671Z"/>
	<path fill="#FEFEFE" transform="scale(0.125 0.125)" d="M343.992 691.541L357.537 691.531L357.451 753.321C352.963 753.401 348.463 753.339 343.973 753.344L343.863 728.82C335.482 728.967 327.085 728.87 318.701 728.878L318.542 753.216C313.943 753.339 309.325 753.256 304.724 753.262C303.636 733.838 304.387 711.216 304.824 691.599L318.467 691.526L318.5 716.381C326.888 716.32 335.285 716.436 343.674 716.469Q343.929 704.006 343.992 691.541Z"/>
	<path fill="#FEFEFE" transform="scale(0.125 0.125)" d="M484.304 195.672C485.885 195.465 487.572 195.665 489.011 196.373C491.882 197.787 493.333 201.21 494.178 204.113C495.534 208.773 498.578 220.257 495.83 224.525C494.931 225.922 493.135 226.839 491.611 227.364C485.229 229.564 477.612 230.362 470.965 231.729C460.642 233.851 450.384 236.429 440.067 238.635C437.813 239.169 435.278 239.318 433.179 238.131C429.333 235.957 428.545 225.518 427.511 221.138C426.673 217.59 425.739 213.272 427.948 210.016C429.237 208.115 431.904 207.139 433.985 206.439C440.927 204.106 448.834 203.124 456.02 201.603C465.42 199.614 474.811 197.149 484.304 195.672Z"/>
	<path fill="#FEFEFE" transform="scale(0.125 0.125)" d="M709.868 690.772C711.35 690.701 712.834 690.722 714.317 690.723C719.141 693.565 738.427 721.619 743.139 728.132Q743.575 709.467 743.459 690.797C747.975 690.729 752.499 690.802 757.016 690.815L757.082 752.461L750.625 752.487C749.128 752.528 747.678 752.509 746.182 752.426C741.536 749.772 722.708 721.877 717.967 715.594L717.886 752.479L703.541 752.381C703.513 731.993 702.084 711.217 703.249 690.884L709.868 690.772Z"/>
	<path fill="#FEFEFE" transform="scale(0.125 0.125)" d="M684.481 690.879L698.936 690.908C691.513 711.596 683.321 732.107 675.111 752.499L664.908 752.412C661.706 744.315 658.753 735.571 654.438 728C651.934 736.213 648.723 744.29 645.335 752.177L633.284 752.013C631.03 743.188 627.061 734.596 623.729 726.128Q616.864 708.685 610.429 691.079C614.995 690.871 619.592 690.934 624.164 690.896C630.023 705.42 635.393 720.495 640.239 735.382C642.679 729.466 644.511 723.242 646.348 717.117C643.329 708.411 639.634 699.904 636.95 691.09L647.779 691.056C649.934 696.832 652.16 702.59 654.037 708.464C655.666 702.559 657.848 696.734 659.815 690.929L671.011 690.958Q666.748 703.66 661.541 716.006C664.19 721.993 666.414 728.242 669.376 734.076C671.593 724.885 675.22 715.949 678.466 707.077Q681.393 698.948 684.481 690.879Z"/>
	<path fill="#FEFEFE" transform="scale(0.125 0.125)" d="M504.939 691.237C512.052 691.217 518.631 692.278 524.91 695.786C531.481 699.457 536.066 705.221 538.123 712.486C540.378 720.45 539.698 729.664 535.524 736.901C531.589 743.722 524.899 748.241 517.399 750.248C506.92 752.713 494.978 751.973 484.284 752.01C484.075 731.931 484.222 711.838 484.278 691.758C491.163 691.698 498.056 691.425 504.939 691.237Z"/>
	<path fill="#29293B" transform="scale(0.125 0.125)" d="M496.124 702.502C503.746 702.345 512.852 701.366 519.316 706.238C523.282 709.227 525.484 713.919 526.082 718.774C526.887 725.321 524.824 730.991 520.835 736.067C514.361 742.171 504.564 741.459 496.331 741.3L496.124 702.502Z"/>
	<path fill="#FEFEFE" transform="scale(0.125 0.125)" d="M571.094 690.604C579.599 690.014 587.599 690.791 595.041 695.299Q595.672 695.685 596.284 696.102Q596.896 696.52 597.486 696.966Q598.076 697.413 598.643 697.889Q599.21 698.364 599.754 698.868Q600.297 699.371 600.814 699.9Q601.331 700.429 601.822 700.984Q602.312 701.538 602.775 702.116Q603.237 702.694 603.671 703.294Q604.104 703.895 604.507 704.515Q604.91 705.136 605.282 705.776Q605.654 706.417 605.993 707.074Q606.333 707.732 606.639 708.406Q606.946 709.08 607.219 709.768Q607.492 710.456 607.73 711.157Q607.968 711.858 608.172 712.569Q608.375 713.281 608.543 714.002C610.463 721.951 609.517 730.809 605.096 737.777C600.417 745.15 592.765 749.839 584.396 751.838C575.951 753.532 567.311 752.421 559.924 747.869Q559.26 747.459 558.619 747.017Q557.977 746.574 557.358 746.1Q556.739 745.625 556.145 745.12Q555.551 744.615 554.984 744.08Q554.416 743.546 553.876 742.983Q553.336 742.421 552.826 741.832Q552.315 741.242 551.834 740.628Q551.354 740.014 550.905 739.376Q550.457 738.739 550.041 738.079Q549.625 737.42 549.243 736.74Q548.861 736.06 548.514 735.362Q548.166 734.664 547.855 733.949Q547.543 733.234 547.269 732.505Q546.994 731.775 546.756 731.033Q546.518 730.29 546.318 729.536Q546.118 728.783 545.957 728.02Q545.781 727.254 545.643 726.481Q545.505 725.707 545.406 724.928Q545.308 724.148 545.248 723.365Q545.188 722.581 545.168 721.796Q545.148 721.01 545.167 720.225Q545.186 719.439 545.245 718.655Q545.303 717.872 545.401 717.092Q545.499 716.313 545.635 715.539Q545.772 714.765 545.947 713.999Q546.123 713.233 546.336 712.477Q546.549 711.721 546.801 710.976Q547.052 710.232 547.34 709.501Q547.628 708.77 547.952 708.054Q548.277 707.338 548.636 706.64Q548.996 705.941 549.391 705.262Q549.785 704.582 550.213 703.923C555.136 696.372 562.485 692.423 571.094 690.604Z"/>
	<path fill="#29293B" transform="scale(0.125 0.125)" d="M572.97 702.575C577.45 702.232 581.548 702.224 585.75 704.135Q586.592 704.512 587.393 704.971Q588.193 705.43 588.945 705.966Q589.696 706.503 590.39 707.111Q591.084 707.719 591.714 708.393Q592.345 709.067 592.905 709.8Q593.465 710.534 593.95 711.319Q594.435 712.104 594.839 712.934Q595.243 713.763 595.563 714.629Q595.73 715.095 595.873 715.568Q596.016 716.042 596.135 716.521Q596.254 717.001 596.349 717.487Q596.444 717.972 596.515 718.462Q596.585 718.951 596.631 719.444Q596.677 719.936 596.698 720.43Q596.719 720.924 596.716 721.419Q596.712 721.913 596.684 722.407Q596.655 722.901 596.602 723.392Q596.549 723.884 596.471 724.372Q596.394 724.861 596.292 725.345Q596.19 725.829 596.064 726.307Q595.938 726.785 595.787 727.256Q595.638 727.728 595.464 728.191Q595.291 728.654 595.094 729.108Q594.898 729.562 594.679 730.005C592.013 735.368 587.493 738.559 581.927 740.404C577.157 741.129 572.55 741.056 568.185 738.755C563.795 736.442 560.71 732.39 559.25 727.685C557.597 722.362 558.092 716.172 560.819 711.281C563.599 706.295 567.652 703.975 572.97 702.575Z"/>
	<path fill="#FEFEFE" transform="scale(0.125 0.125)" d="M472.342 143.723Q477.421 143.556 482.484 144.003Q487.546 144.45 492.518 145.503C509.757 149.271 526.168 158.474 535.784 173.639C543.726 186.164 545.621 199.967 542.345 214.265C548.391 218.374 568.974 227.624 571.929 232.647C572.685 233.93 573.092 235.544 572.577 236.993C571.788 239.212 569.495 240.264 567.592 241.356C560.002 237.649 538.853 226.953 534.142 221.64C529.229 216.1 533.156 206.262 532.952 199.586C532.721 192.036 530.364 185.404 526.223 179.107C518.098 166.757 504.742 159.507 490.511 156.564C465.764 151.447 435.261 158.833 414.362 172.581Q411.099 174.777 408.082 177.301C398.602 185.276 391.121 196.06 390.042 208.668C388.609 225.417 396.363 234.381 406.394 246.311C405.154 258.495 390.12 282.159 380.948 290.817C377.78 288.545 375.145 286.012 372.527 283.138C380.727 272.39 388.045 261.887 393.314 249.328C385.221 239.149 378.982 228.923 378.055 215.646C377.045 201.158 382.827 187.599 392.34 176.855C412.003 154.648 443.635 145.513 472.342 143.723Z"/>
	<path fill="#FEFEFE" transform="scale(0.125 0.125)" d="M515.755 258.714C525.437 257.906 538.074 258.165 547.509 260.389C513.206 260.792 486.079 264.023 455.075 279.882Q452.885 280.995 450.723 282.161Q448.561 283.328 446.429 284.547Q444.297 285.767 442.195 287.039Q440.094 288.311 438.025 289.635Q435.956 290.959 433.92 292.334Q431.884 293.709 429.883 295.134Q427.882 296.558 425.917 298.032Q423.952 299.506 422.024 301.029Q420.096 302.551 418.207 304.12Q416.317 305.69 414.467 307.306Q412.617 308.922 410.807 310.583Q408.998 312.244 407.23 313.95Q405.462 315.656 403.737 317.405Q402.012 319.154 400.331 320.945Q398.65 322.736 397.014 324.568Q395.378 326.4 393.788 328.273Q392.197 330.145 390.654 332.056Q389.111 333.967 387.615 335.916Q386.12 337.865 384.673 339.85Q383.226 341.835 381.829 343.856Q380.432 345.876 379.086 347.931Q377.739 349.985 376.444 352.073Q375.149 354.16 373.906 356.279Q372.663 358.397 371.473 360.546Q370.282 362.695 369.146 364.873Q368.009 367.051 366.927 369.256Q365.845 371.461 364.818 373.693Q363.791 375.924 362.819 378.18Q361.848 380.436 360.932 382.716Q360.017 384.995 359.158 387.297Q358.3 389.599 357.499 391.921Q356.697 394.243 355.954 396.584Q355.278 398.763 354.655 400.957Q354.032 403.152 353.462 405.361Q352.892 407.57 352.376 409.792Q351.86 412.014 351.398 414.248Q350.936 416.482 350.528 418.727Q350.12 420.971 349.766 423.225Q349.412 425.478 349.113 427.74Q348.815 430.002 348.57 432.27Q348.326 434.538 348.137 436.811Q347.948 439.085 347.814 441.362Q347.68 443.64 347.601 445.92Q347.522 448.199 347.498 450.481Q347.474 452.762 347.506 455.043Q347.537 457.324 347.624 459.604Q347.71 461.883 347.852 464.16Q347.994 466.437 348.191 468.71Q348.388 470.982 348.639 473.25Q348.891 475.517 349.198 477.778Q349.504 480.038 349.865 482.291Q350.227 484.543 350.642 486.786Q351.058 489.03 351.528 491.262Q351.997 493.494 352.521 495.715Q353.045 497.935 353.622 500.142Q354.199 502.349 354.829 504.542Q355.46 506.734 356.143 508.911Q356.826 511.087 357.562 513.247Q358.298 515.406 359.086 517.547Q359.874 519.688 360.713 521.809Q361.552 523.93 362.443 526.031Q363.333 528.131 364.274 530.209Q365.215 532.287 366.206 534.342Q367.197 536.397 368.238 538.427C391.406 583.361 430.829 615.213 478.722 630.575C481.536 631.331 484.307 632.297 487.08 633.188Q483.582 632.759 480.102 632.199Q476.622 631.638 473.166 630.947Q469.71 630.256 466.282 629.435Q462.854 628.614 459.46 627.665Q456.066 626.715 452.71 625.639Q449.354 624.562 446.04 623.36Q442.727 622.158 439.462 620.831Q436.196 619.505 432.983 618.057Q429.769 616.609 426.613 615.04Q423.457 613.472 420.361 611.786Q417.266 610.1 414.237 608.298Q411.208 606.497 408.248 604.582Q405.289 602.668 402.404 600.644Q399.518 598.619 396.711 596.488Q393.905 594.356 391.18 592.12Q388.455 589.884 385.817 587.547Q384.154 586.067 382.528 584.548Q380.901 583.029 379.312 581.47Q377.723 579.912 376.172 578.316Q374.621 576.719 373.109 575.086Q371.598 573.452 370.126 571.783Q368.654 570.113 367.223 568.408Q365.792 566.704 364.403 564.965Q363.014 563.226 361.667 561.454Q360.32 559.682 359.017 557.878Q357.713 556.074 356.454 554.238Q355.194 552.403 353.98 550.538Q352.765 548.673 351.596 546.779Q350.427 544.885 349.304 542.963Q348.182 541.042 347.106 539.093Q346.03 537.145 345.001 535.171Q343.973 533.197 342.992 531.199Q342.012 529.201 341.08 527.18Q340.148 525.158 339.266 523.115Q338.383 521.072 337.551 519.008Q336.718 516.944 335.935 514.86Q335.153 512.776 334.421 510.674Q333.689 508.573 333.008 506.453Q332.328 504.334 331.699 502.199Q331.069 500.065 330.492 497.915Q329.915 495.766 329.39 493.603Q328.865 491.44 328.392 489.265Q327.919 487.09 327.5 484.904Q327.08 482.718 326.713 480.523Q326.346 478.328 326.033 476.124Q325.719 473.921 325.459 471.71Q325.199 469.5 324.993 467.284Q324.787 465.067 324.634 462.847C321.207 408.016 339.898 360.832 376.114 319.997C412.529 278.937 462.063 261.899 515.755 258.714Z"/>
	<path fill="#FEFEFE" transform="scale(0.125 0.125)" d="M525.753 272.708C525.895 272.689 526.037 272.664 526.18 272.652C567.983 269.06 614.248 288.354 645.696 315.072C680.986 345.056 702.381 389.385 706.084 435.317C709.888 482.51 694.183 527.893 663.547 563.704Q662.115 565.365 660.643 566.991Q659.171 568.616 657.66 570.205Q656.148 571.794 654.598 573.345Q653.048 574.896 651.46 576.409Q649.872 577.921 648.248 579.394Q646.623 580.867 644.963 582.3Q643.302 583.733 641.607 585.124Q639.912 586.516 638.183 587.865Q636.455 589.214 634.693 590.521Q632.932 591.827 631.139 593.09Q629.346 594.352 627.522 595.571Q625.699 596.789 623.846 597.962Q621.993 599.135 620.112 600.262Q618.231 601.389 616.322 602.469Q614.414 603.55 612.48 604.583Q610.545 605.616 608.586 606.602Q606.627 607.587 604.644 608.524Q602.661 609.461 600.656 610.348Q598.651 611.236 596.625 612.074Q594.598 612.913 592.552 613.701Q590.505 614.489 588.44 615.227Q586.375 615.964 584.292 616.651Q582.209 617.337 580.11 617.972Q578.011 618.608 575.897 619.191Q573.783 619.774 571.656 620.305Q569.528 620.837 567.388 621.315Q565.248 621.794 563.096 622.22Q560.945 622.646 558.784 623.019Q556.623 623.391 554.454 623.711Q552.284 624.031 550.107 624.297Q547.931 624.563 545.748 624.776Q543.565 624.988 541.378 625.147C541.021 625.19 540.663 625.228 540.305 625.256C506.164 627.949 470.031 617.909 441.198 599.78C433.818 595.14 426.806 589.566 420.135 583.96C385.48 554.834 364.095 510.357 360.291 465.585C356.297 418.564 372.707 371.972 403.061 336.132C434.723 298.747 476.954 276.766 525.753 272.708Z"/>
	<path fill="#29293B" transform="scale(0.125 0.125)" d="M399.405 357.525C403.498 358.497 425.118 371.304 426.777 374.436C427.323 375.467 427.541 377.045 427.174 378.16C426.472 380.288 424.415 381.381 422.577 382.367C422.434 382.338 422.289 382.318 422.147 382.282C417.116 381.003 397.712 370.324 395.377 366.01C394.581 364.54 394.36 363.283 394.911 361.659C395.616 359.579 397.577 358.46 399.405 357.525Z"/>
	<path fill="#29293B" transform="scale(0.125 0.125)" d="M451.9 304.978C454.093 304.993 456.659 305.013 458.286 306.71C461.07 309.615 473.436 330.887 472.901 334.081C472.536 336.253 470.924 337.42 469.32 338.709C468.045 338.943 466.761 339.157 465.466 338.903C464.396 338.692 463.775 338.046 463.159 337.213C460.145 333.136 450.462 316.382 448.875 312.027C448.526 311.07 448.484 309.976 448.675 308.978C449.048 307.028 450.401 306.08 451.9 304.978Z"/>
	<path fill="#29293B" transform="scale(0.125 0.125)" d="M370.916 428.089C371.672 427.995 372.417 427.938 373.18 427.935C379.268 427.908 402.748 428 406.143 432.052C406.831 432.872 407.323 433.926 407.049 435.027C406.547 437.044 404.769 438.951 403.165 440.17C402.957 440.213 402.75 440.259 402.541 440.298C399.398 440.883 378.721 439.87 375.018 439.273C373.145 438.971 371.173 438.344 369.624 437.218C368.548 436.436 367.554 435.15 367.63 433.746C367.749 431.577 369.324 429.425 370.916 428.089Z"/>
	<path fill="#29293B" transform="scale(0.125 0.125)" d="M657.32 353.473C659.606 353.426 661.276 353.616 662.957 355.313C664.087 356.454 664.629 357.523 664.451 359.163C663.884 364.416 643.573 377.259 639.156 380.457C638.962 380.458 638.769 380.462 638.575 380.461C636.472 380.447 633.163 380.093 631.779 378.218C631.018 377.187 631.021 376.081 631.314 374.891C632.847 368.68 651.523 357.36 657.32 353.473Z"/>
	<path fill="#29293B" transform="scale(0.125 0.125)" d="M524.028 283.519C524.656 283.45 525.372 283.336 526.01 283.369C527.79 283.463 529.331 284.066 530.484 285.457C531.159 286.27 531.544 287.077 531.716 288.118C532.509 292.906 532.616 312.271 531.832 316.964C531.447 319.264 530.066 320.291 528.317 321.62C527.652 321.735 527.667 321.747 526.892 321.796C525.204 321.903 523.285 321.643 522.128 320.248C519.481 317.059 520.101 294.063 520.61 289.168C520.912 286.272 521.808 285.279 524.028 283.519Z"/>
	<path fill="#29293B" transform="scale(0.125 0.125)" d="M559.668 569.458C561.444 569.835 562.992 570.498 564.169 571.927C566.223 574.42 573.138 601.458 572.341 604.474C571.791 606.554 569.487 607.526 567.786 608.459C566.941 608.27 566.094 608.079 565.264 607.834C563.873 607.423 562.771 606.736 562.098 605.383C560.097 601.358 553.249 576.642 554.708 573.383C555.592 571.41 557.851 570.345 559.668 569.458Z"/>
	<path fill="#29293B" transform="scale(0.125 0.125)" d="M603.873 302.431C604.092 302.448 604.313 302.456 604.532 302.483C606.609 302.737 609.58 303.591 610.772 305.484C611.404 306.487 611.616 307.269 611.391 308.444C610.413 313.557 597.006 334.481 593.054 337.271C592.89 337.272 592.726 337.275 592.563 337.274C590.369 337.267 588.348 337.027 586.874 335.205C585.821 333.901 585.748 332.075 586.021 330.491C586.836 325.756 599.98 305.119 603.873 302.431Z"/>
	<path fill="#29293B" transform="scale(0.125 0.125)" d="M613.397 540.498C614.211 540.468 615.197 540.382 615.992 540.557C620.089 541.461 634.969 558.202 637.963 562.162C639.188 563.782 640.74 565.793 640.14 567.957C639.536 570.138 637.691 571.411 635.857 572.493C635.384 572.505 635.209 572.526 634.699 572.453C630.162 571.798 613.667 553.613 610.521 549.204C609.473 547.735 608.957 546.637 609.36 544.795C609.819 542.699 611.711 541.541 613.397 540.498Z"/>
	<path fill="#29293B" transform="scale(0.125 0.125)" d="M441.777 544.056L442.27 544.06C443.371 544.063 444.564 544.006 445.617 544.369C446.998 544.846 448.343 545.924 448.781 547.357C449.359 549.249 448.551 551.456 447.637 553.099C445.291 557.314 432.894 571.473 428.785 574.777C427.877 575.508 426.741 575.882 425.642 576.218C425.4 576.252 425.16 576.303 424.917 576.32C423.686 576.407 422.908 576.102 422.004 575.263C420.243 573.629 419.502 571.689 419.335 569.343C421.074 565.106 437.934 546.44 441.777 544.056Z"/>
	<path fill="#29293B" transform="scale(0.125 0.125)" d="M408.959 491.959C409.905 491.84 411.027 491.831 411.93 492.167C413.182 492.632 414.598 494.088 415.18 495.277C415.817 496.581 415.791 497.578 415.272 498.92C413.253 504.141 389.786 512.336 383.776 514.543C382.984 514.394 383.095 514.464 382.456 514.195C380.423 513.341 378.368 511.721 377.621 509.556C377.247 508.475 377.319 507.515 377.804 506.486C379.619 502.629 403.921 494.029 408.959 491.959Z"/>
	<path fill="#29293B" transform="scale(0.125 0.125)" d="M494.598 570.003C495.31 569.926 496.048 569.821 496.768 569.864C499.595 570.031 501.203 572.314 502.803 574.342C502.783 574.545 502.766 574.748 502.744 574.95C502.052 581.31 498.321 600.507 495.669 605.834C495.127 606.922 494.201 607.698 493.272 608.448C490.938 608.62 488.21 608.826 486.44 606.981C485.206 605.695 485.128 604.134 485.226 602.458C485.582 596.395 489.644 578.444 492.159 573.004C492.716 571.799 493.639 570.894 494.598 570.003Z"/>
	<path fill="#29293B" transform="scale(0.125 0.125)" d="M647.918 488.374C648.642 488.341 648.85 488.31 649.517 488.349C653.784 488.597 672.174 495.997 676.252 498.19C677.727 498.983 679.174 499.963 680.215 501.293C681.184 502.53 681.812 503.91 681.466 505.52C680.996 507.704 679.346 508.99 677.662 510.266C677.51 510.284 677.359 510.312 677.206 510.32C674.051 510.502 647.212 499.94 645.19 497.745C644.299 496.778 643.835 495.059 644.017 493.773C644.356 491.371 646.21 489.882 647.918 488.374Z"/>
	<path fill="#29293B" transform="scale(0.125 0.125)" d="M683.322 423.185C684.852 422.968 686.647 422.651 688.136 423.243C689.749 423.884 690.918 425.092 691.439 426.758C691.951 428.395 691.632 429.966 690.696 431.369C687.716 435.835 667.542 436.591 661.624 437.44C659.567 437.611 656.156 438.213 654.222 437.273C652.704 436.536 651.522 434.913 651.172 433.246C650.872 431.813 651.097 430.787 651.923 429.585C655.094 424.972 677.521 423.898 683.322 423.185Z"/>
	<path fill="#29293B" transform="scale(0.125 0.125)" d="M568.221 294.867C569.191 300.015 540 423.172 535.556 439.218C537.173 441.604 538.768 443.926 539.685 446.692Q539.855 447.203 540 447.721Q540.144 448.24 540.262 448.765Q540.38 449.291 540.472 449.821Q540.563 450.352 540.628 450.886Q540.693 451.421 540.731 451.958Q540.769 452.495 540.779 453.033Q540.79 453.571 540.774 454.11Q540.758 454.648 540.714 455.184Q540.671 455.721 540.601 456.255Q540.531 456.789 540.434 457.318Q540.337 457.848 540.213 458.372Q540.09 458.896 539.94 459.413Q539.791 459.93 539.615 460.439Q539.44 460.948 539.239 461.448Q539.038 461.947 538.812 462.436Q538.587 462.925 538.337 463.402Q538.11 463.843 537.861 464.272Q537.612 464.7 537.343 465.116Q537.073 465.532 536.783 465.935Q536.493 466.337 536.184 466.724Q535.874 467.111 535.546 467.483Q535.217 467.854 534.871 468.209Q534.524 468.563 534.161 468.9Q533.797 469.237 533.417 469.556Q533.037 469.874 532.642 470.174Q532.247 470.473 531.838 470.753Q531.428 471.032 531.005 471.291Q530.582 471.549 530.147 471.787Q529.712 472.024 529.265 472.24Q528.819 472.455 528.362 472.648Q527.906 472.842 527.44 473.012Q526.974 473.182 526.501 473.329C520.671 475.114 515.231 473.893 509.998 471.086C506.052 468.278 503.249 465.011 501.668 460.359C499.889 455.121 500.451 449.592 503.018 444.713C505.813 439.4 510.2 436.255 515.825 434.467C534.284 388.339 549.862 341.057 568.221 294.867Z"/>
</svg>
